<?xml version="1.0" encoding="utf-8"?>
<svg version="1.1" id="Layer_1" xmlns="http://www.w3.org/2000/svg" xmlns:xlink="http://www.w3.org/1999/xlink" x="0px" y="0px"
	 viewBox="0 0 2493.161 1707.752" enable-background="new 0 0 2493.161 1707.752" xml:space="preserve">
<g>
	<path stroke="#000000" stroke-width="0.5" d="M1221.646,56.996c5.893-0.043,11.141-3.814,17.135-3.025
		c18.64,0.989,37.266,2.466,55.893,3.57c8.675,1.62,17.25,3.986,25.738,6.424c8.847,5.219,15.242,13.937,24.505,18.683
		c11.887,6.452,24.218,12.561,34.7,21.207c8.101,10.568,16.49,20.978,24.104,31.889c5.477,16.117,10.582,32.434,15.557,48.723
		c-4.459,7.671-11.543,13.837-16.977,20.949c-3.814,4.058-6.596,9.765-12.245,11.471c-14.998,4.961-30.011,9.937-44.966,14.998
		c-14.74,5.234-30.169,8.001-45.239,12.073c-12.761,3.499-25.996,5.492-38.256,10.654c-12.346,4.89-24.906,9.277-37.18,14.324
		c-5.75,3.685-9.349,9.836-14.325,14.439c0.602-5.807,1.749-11.528,2.796-17.25c2.151-14.998,14.884-25.853,17.522-40.679
		c-6.582,2.323-13.593,4.359-18.927,9.091c-3.685,3.14-6.309,7.298-8.747,11.428c-2.681,4.345-2.337,9.664-2.997,14.539
		c-3.699-4.316-6.926-9.564-12.561-11.514c-9.334-4.732-19.615-6.711-29.825-8.503c-4.933,2.954-8.761,7.714-12.589,11.987
		c-1.405,11.141-0.703,22.584,0.66,33.739c0.617,7.313,5.234,13.349,7.456,20.175c-4.517-3.097-10.396-4.961-13.048-10.109
		c-6.065-10.625-12.303-21.135-18.296-31.789c1.376-3.384,2.595-6.84,3.728-10.31c5.735-6.166,11.743-12.102,18.081-17.651
		c10.869-1.262,21.91-1.19,32.85-2.022c-2.409-3.255-4.976-6.366-7.528-9.478c4.76-0.889,9.507-1.921,14.224-3.097
		c-0.287-3.413-0.559-6.811-0.789-10.224c3.915-2.796,7.772-5.692,11.657-8.532c-0.229-2.739-0.617-5.477-0.444-8.23
		c1.161-2.022,2.567-3.9,3.914-5.822c-5.42-3.341-10.797-6.739-16.231-10.023c-11.328-5.865-16.418-18.454-25.423-26.914
		c0.645,7.227,1.936,14.382,2.796,21.594c-4.244-3.097-8.159-6.581-12.331-9.75c5.119,11.213,10.181,22.455,15.687,33.495
		c-6.696,1.993-13.521,3.542-20.203,5.635c4.76,3.011,9.65,5.807,14.554,8.603c-6.868,6.668-13.679,13.392-20.705,19.874
		l-1.018,0.903c-0.201-10.797,1.118-21.652-1.032-32.348c-1.434-5.736,0.66-13.464-4.818-17.379
		c-4.216-3.828-9.148-6.997-12.589-11.571c-1.778-20.06-4.259-40.22-2.251-60.352c6.567-9.908,14.64-18.812,21.666-28.434
		c3.714-5.721,10.353-8.058,15.93-11.457c6.954-3.513,13.263-9.277,21.437-9.464C1189.039,60.265,1205.228,57.226,1221.646,56.996
		 M1195.564,71.607c7.987,3.112,16.647,3.8,24.82,6.309c-11.17,0.832-22.383-0.143-33.567,0.387
		c6.51,3.642,14.525,3.843,20.777,7.987c-11.772,0.975-23.544,2.065-35.245,3.671c5.463,2.653,11.428,4.087,17.178,6.065
		c2.151,0.918,5.119,0.832,6.409,3.14c-11.026,2.739-21.738,6.553-32.649,9.664c-1.95,0.803-4.775,0.731-5.506,3.14
		c-2.007,4.345-3.771,8.804-5.406,13.292c7.657-2.036,15.185-5.277,23.272-5.09c15.658-0.315,31.287-1.549,46.959-1.85
		c-3.155-3.771-7.083-6.768-10.568-10.195c4.703-1.635,9.607-2.552,14.367-4.029c-4.674-3.155-9.908-5.262-14.797-8.015
		c10.553,0.86,21.164,0.86,31.732,1.764c-5.449-5.105-12.862-7.571-18.583-12.389c9.148-0.459,18.325-0.029,27.487-0.172
		c-2.825-2.839-6.61-4.416-9.507-7.155c7.126,0.918,13.45,4.847,20.49,5.908c-0.932-3.069-4.646-3.097-7.069-4.388
		c-8.747-3.04-17.02-7.542-25.924-9.98C1218.663,69.973,1207.121,71.177,1195.564,71.607 M1253.636,130.411
		c-1.893,7.442-3.9,14.912-5.09,22.498c2.251,9.378,0.817,19.185,0.946,28.749c6.524-11.758,10.639-24.835,17.579-36.334
		c-1.032,11.07-0.731,22.211-1.864,33.28c3.527-4.99,5.377-10.955,8.99-15.902c-0.401,9.693-0.903,19.386-0.86,29.093
		c4.703-7.427,8.001-15.687,13.12-22.827c0.344,8.618,0.072,17.264,0.1,25.896c7.241-6.452,12.647-14.726,19.931-21.135
		c-3.585,11.743-8.13,23.186-11.93,34.872c9.206-4.789,18.139-10.109,27.444-14.712c-0.645,7.829-1.721,15.629-2.151,23.487
		c7.886-2.179,15.773-4.431,23.817-6.051c-1.964,2.667-4.216,5.119-6.094,7.843c10.396-4.416,20.418-9.65,30.685-14.367
		c-2.481,6.366-5.664,12.417-8.517,18.612c7.7-5.047,14.912-10.811,22.483-16.074c1.448-1.262,3.8-2.208,3.814-4.474
		c1.42-14.281,4.101-28.505,4.889-42.801c-4.574-12.145-8.589-24.577-14.023-36.334c-0.946,7.37-1.821,14.74-2.696,22.125
		c-4.531-9.277-5.951-19.96-10.424-29.337c-0.631,9.98-0.072,20.017-1.004,29.968c-3.828,5.219-8.359,9.879-12.36,14.97
		c-5.778-1.85-11.958-2.653-17.479-5.148c-1.405-2.524-2.323-5.291-3.771-7.772c-2.495-1.52-5.463-2.007-8.159-3.04
		c-1.678-3.011-3.37-6.008-5.019-9.033c-2.509,1.348-4.904,2.868-7.198,4.531c-2.308-4.044-4.359-8.202-6.166-12.46
		c-4.588,4.445-8.388,9.607-12.69,14.324c-1.964-6.682-3.198-13.536-4.603-20.318c-2.352,2.079-4.345,4.517-6.524,6.754
		c-1.032-4.875-1.434-9.851-2.466-14.712c-3.499,3.671-6.682,7.628-10.138,11.342c-0.244-3.656-0.373-7.327-0.602-10.998
		C1260.905,119.456,1257.263,125.034,1253.636,130.411z"/>
	<path fill="#FEFEFE" stroke="#FEFEFE" stroke-width="0.5" d="M1195.564,71.607c11.557-0.43,23.1-1.635,34.671-1.936
		c8.904,2.438,17.178,6.94,25.924,9.98c2.423,1.29,6.137,1.319,7.069,4.388c-7.04-1.061-13.364-4.99-20.49-5.908
		c2.896,2.739,6.682,4.316,9.507,7.155c-9.162,0.143-18.339-0.287-27.487,0.172c5.721,4.818,13.134,7.284,18.583,12.389
		c-10.568-0.903-21.178-0.903-31.732-1.764c4.89,2.753,10.123,4.861,14.797,8.015c-4.76,1.477-9.664,2.395-14.367,4.029
		c3.484,3.427,7.413,6.424,10.568,10.195c-15.672,0.301-31.302,1.534-46.959,1.85c-8.087-0.186-15.615,3.054-23.272,5.09
		c1.635-4.488,3.398-8.947,5.406-13.292c0.731-2.409,3.556-2.337,5.506-3.14c10.912-3.111,21.623-6.926,32.649-9.664
		c-1.29-2.309-4.259-2.222-6.409-3.14c-5.75-1.979-11.715-3.413-17.178-6.065c11.7-1.606,23.473-2.696,35.245-3.671
		c-6.252-4.144-14.267-4.345-20.777-7.987c11.184-0.531,22.397,0.444,33.567-0.387C1212.211,75.407,1203.55,74.719,1195.564,71.607z
		"/>
	<path fill="#FFFFFF" stroke="#FFFFFF" stroke-width="0.5" d="M1253.636,130.411c3.628-5.377,7.27-10.955,11.973-15.486
		c0.229,3.671,0.359,7.341,0.602,10.998c3.456-3.714,6.639-7.671,10.138-11.342c1.032,4.861,1.434,9.836,2.466,14.712
		c2.179-2.237,4.173-4.674,6.524-6.754c1.405,6.782,2.638,13.636,4.603,20.318c4.302-4.717,8.101-9.879,12.69-14.324
		c1.807,4.259,3.857,8.417,6.166,12.46c2.294-1.663,4.689-3.183,7.198-4.531c1.649,3.025,3.341,6.022,5.019,9.033
		c2.696,1.032,5.664,1.52,8.159,3.04c1.448,2.481,2.366,5.248,3.771,7.772c5.52,2.495,11.7,3.298,17.479,5.148
		c4-5.09,8.532-9.75,12.36-14.97c0.932-9.951,0.373-19.988,1.004-29.968c4.474,9.378,5.893,20.06,10.424,29.337
		c0.875-7.384,1.749-14.755,2.696-22.125c5.434,11.758,9.449,24.189,14.023,36.334c-0.788,14.296-3.47,28.52-4.889,42.801
		c-0.014,2.266-2.366,3.212-3.814,4.474c-7.571,5.262-14.783,11.027-22.483,16.074c2.853-6.194,6.037-12.245,8.517-18.612
		c-10.267,4.717-20.289,9.951-30.685,14.367c1.878-2.724,4.13-5.176,6.094-7.843c-8.044,1.62-15.93,3.871-23.817,6.051
		c0.43-7.858,1.505-15.658,2.151-23.487c-9.306,4.603-18.239,9.922-27.444,14.712c3.8-11.686,8.345-23.128,11.93-34.872
		c-7.284,6.409-12.69,14.683-19.931,21.135c-0.029-8.632,0.244-17.278-0.1-25.896c-5.119,7.141-8.417,15.4-13.12,22.827
		c-0.043-9.707,0.459-19.4,0.86-29.093c-3.613,4.947-5.463,10.912-8.99,15.902c1.133-11.07,0.832-22.211,1.864-33.28
		c-6.94,11.5-11.055,24.577-17.579,36.334c-0.129-9.564,1.305-19.372-0.946-28.749
		C1249.735,145.323,1251.743,137.852,1253.636,130.411z"/>
	<path fill="#FEFEFE" stroke="#FEFEFE" stroke-width="0.5" d="M1155.573,152.191c9.005,8.46,14.095,21.049,25.423,26.914
		c5.434,3.284,10.811,6.682,16.231,10.023c-1.348,1.921-2.753,3.8-3.914,5.822c-0.172,2.753,0.215,5.492,0.444,8.23
		c-3.886,2.839-7.743,5.736-11.657,8.532c0.229,3.413,0.502,6.811,0.789,10.224c-4.717,1.176-9.464,2.208-14.224,3.097
		c2.552,3.112,5.119,6.223,7.528,9.478c-10.941,0.832-21.981,0.76-32.85,2.022c-6.338,5.549-12.346,11.485-18.081,17.651
		l-1.047,0.717c3.298-7.872,5.363-16.776,11.156-23.257c7.026-6.481,13.837-13.206,20.705-19.874
		c-4.904-2.796-9.793-5.592-14.554-8.603c6.682-2.093,13.507-3.642,20.203-5.635c-5.506-11.041-10.568-22.282-15.687-33.495
		c4.173,3.169,8.087,6.653,12.331,9.75C1157.509,166.573,1156.218,159.418,1155.573,152.191z"/>
	<path fill="#F4A07E" stroke="#F4A07E" stroke-width="0.5" d="M1390.055,216.888c5.65-1.706,8.431-7.413,12.245-11.471
		c3.857,7.628,2.71,16.848,1.993,25.136c-2.036,20.691-4.259,41.367-7.127,61.958c-1.477,9.908-1.95,19.988-4.703,29.667
		c-1.936,6.782-2.423,14.066-5.549,20.461c-6.639,11.299-13.751,22.311-20.447,33.581c-0.803,1.405-1.534,2.853-2.337,4.259
		c-4.861,7.557-9.736,15.127-13.952,23.071c-3.47,4.732-6.166,9.965-9.349,14.884c-1.663,3.112-5.477,3.413-8.489,4.287
		c-8.015,1.663-15.873,4.244-24.06,4.789c-9.134-5.922-19.988-8.216-29.337-13.708c-15.629-8.818-31.617-17.02-47.246-25.867
		c-12.231-7.327-24.261-14.998-36.592-22.139c-2.165-1.549-5.234-2.653-5.822-5.535c-2.724-9.951-3.886-20.232-5.879-30.327
		c-0.76-5.463-6.983-6.18-10.31-9.492c-5.85-5.377-11.356-11.156-17.909-15.687c5.219,9.435,12.389,17.594,18.354,26.555
		c2.552,3.757,2.481,8.474,3.068,12.819c1.018,8.904,1.864,17.852,3.198,26.728c0.444,5.377,6.438,7.155,9.994,10.267
		c7.528,6.151,17.264,7.929,26.197,11.113c9.793,3.413,19.787,6.252,29.423,10.109c-18.511,11.7-38.657,20.404-58.244,30.097
		c-16.274,8.087-32.907,15.5-48.823,24.247c7.184-0.774,14.439-3.183,21.695-1.434c6.553,1.42,13.335,2.208,19.572,4.803
		c5.779,2.409,10.826,7.528,17.536,6.811c4.904-0.287,10.037,0.344,14.769-1.19c8.747-5.535,15.027-14.439,24.591-18.812
		c-3.857,7.642-8.446,14.884-12.561,22.397c-14.826,29.079-30.613,57.714-43.131,87.911c-8.732-2.839-16.074-8.632-24.605-11.93
		c-12.446-3.785-25.451-5.635-37.826-9.593c-3.929-3.413-5.893-8.489-8.775-12.733c-4.674-8.23-10.969-15.644-13.923-24.734
		c-6.538-24.792-13.693-49.411-20.418-74.146c-2.438-9.578-7.872-17.966-12.03-26.828c-3.699-7.327-7.327-14.683-10.969-22.024
		c-3.169-6.682-9.707-10.682-14.769-15.773c7.184-2.151,14.726-2.782,22.067-4.201c16.705-2.882,33.381-5.936,50.071-8.89
		c6.768-1.219,14.167-1.405,19.716-6.022c5.521-4.459,13.579-6.897,15.902-14.281c2.266-6.61,7.37-12.518,7.614-19.63
		c-2.222-6.825-6.84-12.862-7.456-20.175c-1.362-11.156-2.065-22.598-0.66-33.739c3.828-4.273,7.657-9.033,12.589-11.987
		c10.209,1.792,20.49,3.771,29.825,8.503c5.635,1.95,8.861,7.198,12.561,11.514c0.66-4.875,0.315-10.195,2.997-14.539
		c2.438-4.13,5.062-8.288,8.747-11.428c5.334-4.732,12.346-6.768,18.927-9.091c-2.638,14.826-15.371,25.681-17.522,40.679
		c-1.047,5.721-2.194,11.442-2.796,17.25c4.976-4.603,8.575-10.754,14.325-14.439c12.274-5.047,24.835-9.435,37.18-14.324
		c12.26-5.162,25.494-7.155,38.256-10.654c15.07-4.072,30.499-6.84,45.239-12.073
		C1360.044,226.825,1375.056,221.849,1390.055,216.888 M1152.289,263.044c-0.344,6.639-4.402,13.22-1.893,19.845
		c1.434,4.201,2.452,8.646,4.703,12.503c3.499,3.642,7.385,7.012,11.743,9.593c-1.577-6.323-2.982-13.134-7.413-18.167
		c-6.538-6.266-5.047-16.447-3.47-24.491c4.259-0.989,8.431-2.61,11.399-5.951c1.706-2.524,4.746-0.817,7.112-0.531
		c-2.825-2.093-5.277-5.176-8.861-5.865C1158.799,249.824,1152.031,256.104,1152.289,263.044 M1167.402,267.833
		c-4.259,2.696-7.6,7.212-6.209,12.518c3.327,6.567,9.851,10.51,15.371,15.056c3.097,3.068,7.7,2.022,11.643,2.28
		c-0.918-6.696-1.678-13.55-0.272-20.246c-6.84,1.921-14.525,3.986-20.806-0.674c5.334-1.835,11.858-2.739,14.109-8.747
		c-2.524,0.186-5.191,1.061-7.628,0.072C1171.561,267.618,1169.094,265.64,1167.402,267.833 M1169.955,309.115
		c3.269,3.656,9.019,7.772,13.378,3.198C1178.988,310.792,1174.5,309.731,1169.955,309.115z"/>
	<path fill="#D66030" stroke="#D66030" stroke-width="0.5" d="M1152.289,263.044c-0.258-6.94,6.51-13.22,13.321-13.063
		c3.585,0.688,6.036,3.771,8.861,5.865c-2.366-0.287-5.406-1.993-7.112,0.531c-2.968,3.341-7.141,4.961-11.399,5.951
		c-1.577,8.044-3.068,18.225,3.47,24.491c4.431,5.033,5.836,11.844,7.413,18.167c-4.359-2.581-8.245-5.951-11.743-9.593
		c-2.251-3.857-3.269-8.302-4.703-12.503C1147.887,276.265,1151.945,269.683,1152.289,263.044z"/>
	<path fill="#D76030" stroke="#D76030" stroke-width="0.5" d="M1167.402,267.833c1.692-2.194,4.158-0.215,6.209,0.258
		c2.438,0.989,5.105,0.115,7.628-0.072c-2.251,6.008-8.775,6.911-14.109,8.747c6.28,4.66,13.966,2.595,20.806,0.674
		c-1.405,6.696-0.645,13.55,0.272,20.246c-3.943-0.258-8.546,0.789-11.643-2.28c-5.521-4.545-12.045-8.489-15.371-15.056
		C1159.803,275.046,1163.144,270.529,1167.402,267.833z"/>
	<path fill="#D9612F" stroke="#D9612F" stroke-width="0.5" d="M1155.186,304.756c6.553,4.531,12.059,10.31,17.909,15.687
		c3.327,3.312,9.55,4.029,10.31,9.492c1.993,10.095,3.155,20.375,5.879,30.327c0.588,2.882,3.656,3.986,5.822,5.535
		c12.331,7.141,24.362,14.812,36.592,22.139c15.629,8.847,31.617,17.049,47.246,25.867c9.349,5.492,20.203,7.786,29.337,13.708
		c-1.233,0.731-2.466,1.448-3.671,2.165c-3.728,0.602-7.485-0.086-10.84-1.692c-9.062-4.631-18.526-8.374-27.688-12.747
		c-2.638-1.133-5.291-2.595-8.202-2.61c-8.618,10.381-13.278,23.444-21.365,34.241c-9.564,4.373-15.844,13.278-24.591,18.812
		c-4.732,1.534-9.865,0.903-14.769,1.19c-6.711,0.717-11.758-4.402-17.536-6.811c-6.237-2.595-13.02-3.384-19.572-4.803
		c-7.255-1.749-14.511,0.66-21.695,1.434c15.916-8.747,32.549-16.16,48.823-24.247c19.587-9.693,39.733-18.397,58.244-30.097
		c-9.636-3.857-19.63-6.696-29.423-10.109c-8.933-3.183-18.669-4.961-26.197-11.113c-3.556-3.112-9.55-4.89-9.994-10.267
		c-1.333-8.876-2.179-17.823-3.198-26.728c-0.588-4.345-0.516-9.062-3.068-12.819
		C1167.574,322.349,1160.405,314.191,1155.186,304.756z"/>
	<path fill="#CB663F" stroke="#CB663F" stroke-width="0.5" d="M1169.955,309.115c4.545,0.617,9.033,1.678,13.378,3.198
		C1178.974,316.886,1173.224,312.771,1169.955,309.115z"/>
	<path fill="#165A65" stroke="#165A65" stroke-width="0.5" d="M1017.706,356.132c2.724-0.989,5.621-1.161,8.36-0.029
		c-0.086,0.774-0.244,2.323-0.33,3.097c-5.506,2.581-11.098,4.933-16.604,7.499c8.675,13.048,22.383,21.781,31.631,34.37
		c5.893,9.449,12.432,18.54,17.379,28.548c5.062,10.553,11.313,20.476,16.231,31.101c6.194,13.392,14.411,25.767,20.103,39.403
		c0.301-0.473,0.903-1.448,1.219-1.936c2.954,9.091,9.249,16.504,13.923,24.734c2.882,4.244,4.847,9.32,8.775,12.733
		c12.374,3.958,25.38,5.807,37.826,9.593c8.532,3.298,15.873,9.091,24.605,11.93c12.518-30.197,28.305-58.832,43.131-87.911
		c4.115-7.514,8.704-14.755,12.561-22.397c8.087-10.797,12.747-23.86,21.365-34.241c2.911,0.014,5.563,1.477,8.202,2.61
		c9.162,4.373,18.626,8.116,27.688,12.747c-0.057,10.797,0.172,21.68-1.291,32.406c-4.66,20.691-9.263,41.396-13.909,62.101
		c-4.201,16.576-6.883,33.553-8.015,50.602c6.553-10.811,10.295-23.028,15.644-34.456c6.194-14.812,12.991-29.394,18.54-44.45
		c2.739-12.69,5.148-25.666,4.545-38.729c-0.143-8.704-1.936-17.393-0.875-26.111c-0.946,0.086-2.853,0.258-3.8,0.33
		c1.204-0.717,2.438-1.434,3.671-2.165c8.187-0.545,16.045-3.126,24.06-4.789c3.011-0.875,6.825-1.176,8.489-4.287
		c3.183-4.918,5.879-10.152,9.349-14.884c2.093-1.749,4.259-3.413,6.395-5.119c-6.108,16.016-13.421,31.545-19.687,47.504
		c-3.527,9.679-8.661,18.741-11.385,28.721c-6.653,24.548-12.876,49.211-19.415,73.787c-2.151,8.99-0.918,18.296-1.19,27.444
		c0.229,13.034-0.459,26.082,0.444,39.102c3.37-4.76,3.785-10.697,5.176-16.174c2.266-9.234,4.459-18.497,6.366-27.832
		c1.161-5.449,2.065-11.385,6.18-15.5c8.775-9.464,16.117-20.132,24.806-29.653c8.13-10.496,17.436-20.16,24.39-31.517
		c-15.027,12.618-27.688,27.746-41.324,41.798c-4.803,4.918-6.553,11.715-9.736,17.608c-1.319,2.581-4.316,3.398-6.682,4.689
		c0.416-9.464,0.918-19.056,3.37-28.219c10.482-27.158,21.322-54.201,31.818-81.358c5.047-14.855,6.596-30.599,10.109-45.855
		c0.817-7.628,3.843-14.855,4.316-22.498c0.803-1.405,1.534-2.853,2.337-4.259c3.943,0.488,9.205,1.018,10.496,5.592
		c5.148,12.475,10.525,24.863,15.644,37.353c5.277,12.045,8.718,24.763,13.077,37.137c2.237,5.879-1.118,11.786-2.323,17.508
		c-2.223,9.191-5.42,18.196-6.94,27.545c3.025,19.73,8.446,39.073,11.786,58.76c-0.631,12.991-5.191,25.58-5.506,38.614
		c1.592,15.285,3.914,30.499,5.865,45.741c0.43,4.302,1.62,8.661,1.004,13.005c-3.183,8.517-9.607,15.615-11.571,24.62
		c-5.205,1.663-10.654,1.993-16.074,1.979c-11.872,0.487-23.745,1.004-35.618,0.774c-16.059-0.889-32.033-4.23-48.121-3.742
		c-23.386,4.746-46.802,9.593-70.461,12.805c-9.937,0.516-18.956-4.775-28.706-5.879c-4.316,8.288-8.288,16.748-11.829,25.394
		l-1.233-0.014c-2.997-4.646-5.994-9.277-9.406-13.607c-6.911-8.818-12.948-18.468-21.68-25.666
		c-5.865-6.08-12.303-11.571-18.01-17.794c13.536-0.875,26.842,2.71,40.335,2.911c4.459-0.072,7.6-5.607,12.245-3.929
		c9.248,2.696,17.665,7.686,26.971,10.209c4.574,1.133,8.359-2.538,11.715-5.062c-5.979-2.28-14.439-1.319-18.182-7.341
		c1.032-6.553,5.219-11.987,7.757-17.995c2.567-6.022,5.908-11.801,7.442-18.196c1.477-10.926,0.416-22.211,3.312-32.907
		c5.047-11.127,10.611-22.067,15.214-33.395c4.058-12.045,7.112-24.39,10.74-36.564c2.223-8.001,5.033-15.873,5.994-24.147
		c-10.883,12.475-18.44,27.401-28.032,40.837c-8.388,11.356-14.511,24.261-23.802,34.944
		c-10.353,12.145-19.959,24.921-30.599,36.822c-1.764-3.427-4.173-6.467-7.298-8.718c-6.237-4.703-10.84-11.299-17.608-15.299
		c-6.639-3.9-13.263-7.843-20.261-11.026c-9.507,5.248-19.056,10.424-28.391,15.973c-1.635,1.276-4.517,2.452-3.886,5.019
		c1.635,10.281,7.37,19.658,7.714,30.183c-2.352,6.28-8.388,10.324-11.6,16.188c9.019,2.839,19.372-1.663,27.602,3.972
		c5.85,3.671,12.174,6.725,17.307,11.442c-9.32,0.889-18.827-1.032-28.018,1.204c-5.506,1.262-10.94,3.154-16.633,3.312
		c-17.25,0.301-33.797-6.739-51.075-5.664c-3.212,0.143-6.395,0.602-9.593,0.918c-14.841-4.044-30.312-3.785-45.511-5.406
		c-4.087-0.918-6.653,2.853-9.378,5.148c-3.069,1.219-6.166,2.366-9.206,3.656c0.975-5.822,2.151-11.6,2.796-17.45
		c-7.614,9.406-7.47,22.999-15.744,31.875c1.964-12.417,7.212-24.06,9.464-36.421c3.24-19.343,6.194-38.729,9.578-58.043
		c2.222-14.138,6.739-27.746,9.937-41.668c5.951-23.344,13.206-46.558,15.414-70.661c-6.596,7.643-9.048,17.68-13.78,26.412
		c-6.252,11.7-11.027,24.089-17.192,35.833c-5.248,10.224-8.689,21.293-14.224,31.344c-3.398-27.846-4.316-55.95-7.442-83.81
		c-3.14-13.421-5.649-27.043-10.209-40.063c0.072,17.866,2.524,35.646,3.656,53.469c1.247,17.852,2.997,35.675,4.058,53.527
		c0.373,4.058-1.405,7.815-3.054,11.385c-11.7,25.236-22.383,50.931-34.327,76.053c-2.552,6.596-2.395,13.794-3.527,20.705
		c-1.29-0.588-2.567-1.118-3.871-1.606c-4.947-10.998-11.213-21.35-16.776-32.033c-3.484-6.151-6.309-12.661-10.152-18.583
		c-2.337-1.506-5.391-0.76-8.001-1.075c-4.029,1.477-6.768,4.875-9.65,7.858c3.613,6.711,7.872,13.034,11.514,19.73
		c-3.083-1.061-6.094-2.337-8.919-3.943c-3.757-4.345-9.435-3.355-14.353-2.036c-7.384-4.588-14.353-10.037-22.684-12.848
		c-6.309-2.093-12.575-6.495-19.501-4.732c-11.557,2.581-22.196,8.374-31.674,15.343c10.224,6.653,23.516,1.534,34.427,6.151
		c5.85,4.173,10.467,9.808,15.328,15.056c-0.502,1.506-0.989,3.026-1.491,4.545c-2.28,4.631-5.908,8.546-7.657,13.435
		c-1.319,4.603-1.85,9.392-3.198,13.995c-0.373-0.459-1.118-1.377-1.491-1.821c-0.402,1.118-1.219,3.355-1.635,4.488
		c-1.204-4.832-1.893-9.75-2.466-14.669c-3.685,1.706-7.026,4.072-9.922,6.94c-4.545,4.517-10.338,8.417-12.274,14.869
		c-2.122,6.711-5.951,12.876-7.27,19.831c0.115,4.244,5.363,1.592,7.901,1.319c1.061-4.574,1.549-9.449,3.972-13.55
		c5.42-4.99,12.102-8.331,18.138-12.503c0.674,1.735,1.348,3.47,1.993,5.234c1.161,4.359,3.284,8.403,4.459,12.761
		c1.047,5.865-0.932,11.657-2.825,17.12c5.535,2.653,11.428,4.416,17.006,6.997c-9.65,2.05-19.529,1.176-29.294,1.291
		c-23.831,0.014-47.648,0.143-71.464-0.043c-0.502-11.83-0.631-23.659-1.362-35.474c1.534-0.43,3.068-0.846,4.631-1.262
		c8.56-23.874,13.364-49.368,25.652-71.708c9.564-3.585,19.529-6.108,29.194-9.464c3.198-8.575,4.846-17.68,8.216-26.183
		c5.865-5.764,13.565-9.277,19.845-14.568c3.226-9.392,3.785-19.529,6.739-29.022c0.545-1.706,1.678-3.126,2.767-4.502
		c18.813-22.369,37.439-44.895,55.434-67.923c10.568-12.59,20.246-25.867,28.878-39.862c4.803-7.083,8.589-15.113,15.328-20.634
		c4.746-3.828,8.718-9.076,14.755-10.94C963.118,373.41,990.39,364.677,1017.706,356.132 M886.119,472.792
		c-7.528,3.9-16.862,4.918-22.612,11.686c-4.832,5.248-11.084,8.962-15.787,14.339c-6.366,7.198-10.668,15.916-16.905,23.229
		c-2.481,2.853-4.603,5.994-6.409,9.306c2.509,1.147,5.85,4.187,8.259,1.176c8.89-9.292,16.217-20.074,25.351-29.122
		c11.242-6.553,22.727-12.704,34.112-18.985c5.635-3.255,9.75-8.388,14.382-12.848c2.638-2.667,5.707-5.148,6.969-8.804
		C904.013,465.049,895.267,469.551,886.119,472.792 M1059.575,465.364c0.158,3.341,0.703,6.668,1.649,9.908
		c4.617,16.791,10.797,33.094,16.375,49.569c1.893,10.31,8.173,19.099,15.113,26.656c3.886,0.803,2.839-4.531,2.481-6.883
		c-8.216-20.203-17.923-39.776-26.097-60.008C1065.769,478.269,1063.962,471.1,1059.575,465.364 M1394.443,535.165
		c-3.312,17.909-7.341,35.689-10.797,53.57c-0.86,4.99-4.56,8.747-7.671,12.489c-5.019,5.506-9.693,11.328-14.482,17.049
		c-3.04,3.728-6.983,7.055-8.073,11.973c7.972,0.086,15.715-2.28,23.487-3.8c2.696-2.352,3.714-5.965,5.033-9.162
		c4.789-13.607,10.84-26.756,15.256-40.493c1.362-16.533-0.602-33.194,0.43-49.77
		C1395.045,528.928,1395.073,532.312,1394.443,535.165 M1334.09,593.682c-7.628,10.94-16.375,21.078-23.903,32.076
		c-3.628,5.363-5.148,11.958-9.636,16.748c-2.079-1.247-4.13-2.524-6.194-3.757c-4.674,6.108-7.571,13.392-11.184,20.146
		c6.151,2.036,10.682-2.466,15.471-5.463c1.835,2.065,3.284,5.019,6.209,5.707c7.514,1.663,15.271,1.032,22.899,1.563
		c6.725,0.358,13.622,2.108,20.232-0.029c8.618-2.638,17.45-4.474,26.168-6.811c1.333-0.631,4.703-0.946,3.742-3.198
		c-4.158-4.13-9.535-8.187-15.73-7.657c-10.525,0.315-21.064,0.373-31.56,1.319c-6.323,0.33-12.833,0.172-18.755,2.767
		c3.786-9.636,8.274-18.97,13.005-28.176c4.273-9.607,10.41-18.497,12.862-28.821C1336.413,591.216,1335.08,592.306,1334.09,593.682
		z"/>
	<path fill="#10474E" stroke="#10474E" stroke-width="0.5" d="M1026.065,356.103c3.771,1.133,8.087,1.047,11.442,3.312
		c5.062,5.09,11.6,9.091,14.769,15.773c3.642,7.341,7.27,14.697,10.969,22.024c4.158,8.861,9.593,17.25,12.03,26.828
		c6.725,24.734,13.88,49.354,20.418,74.146c-0.316,0.488-0.918,1.463-1.219,1.936c-5.693-13.636-13.909-26.01-20.103-39.403
		c-4.918-10.625-11.17-20.547-16.231-31.101c-4.947-10.008-11.485-19.099-17.379-28.548c-9.249-12.589-22.956-21.322-31.631-34.37
		c5.506-2.567,11.098-4.918,16.604-7.499C1025.821,358.426,1025.979,356.877,1026.065,356.103z"/>
	<path fill="#0E474F" stroke="#0E474F" stroke-width="0.5" d="M1364.13,380.479c-0.473,7.643-3.499,14.869-4.316,22.498
		c-3.513,15.256-5.062,31-10.109,45.855c-10.496,27.158-21.336,54.201-31.818,81.358c-2.452,9.162-2.954,18.755-3.37,28.219
		c2.366-1.291,5.363-2.108,6.682-4.689c3.183-5.893,4.933-12.69,9.736-17.608c13.636-14.052,26.297-29.179,41.324-41.798
		c-6.954,11.356-16.26,21.021-24.39,31.517c-8.689,9.521-16.031,20.189-24.806,29.653c-4.115,4.115-5.019,10.051-6.18,15.5
		c-1.907,9.335-4.101,18.597-6.366,27.832c-1.391,5.477-1.807,11.414-5.176,16.174c-0.903-13.02-0.215-26.068-0.444-39.102
		c0.272-9.148-0.961-18.454,1.19-27.444c6.538-24.577,12.761-49.239,19.415-73.787c2.724-9.98,7.858-19.042,11.385-28.721
		c6.266-15.959,13.579-31.488,19.687-47.504c-2.136,1.706-4.302,3.37-6.395,5.119
		C1354.394,395.606,1359.269,388.035,1364.13,380.479z"/>
	<path fill="#FCF7D7" stroke="#FCF7D7" stroke-width="0.5" d="M1611.818,414.046c3.599-2.853,6.18-8.675,11.399-8.273
		c67.306,5.176,134.627,9.851,201.933,14.984c25.265,1.262,50.415,4.173,75.709,5.191c1.835,7.141,3.542,14.31,5.478,21.436
		c0.631,2.939,1.721,6.137,0.301,9.048c-24.863,59.262-49.626,118.582-74.519,177.844c-9.005,22.153-18.913,43.948-27.373,66.317
		c2.309,0.129,4.574,0.76,6.883,1.233c-2.05,3.929-4.087,7.872-6.381,11.672c-152.005,0.115-304.025,0.014-456.03,0.043
		c-45.095-0.086-90.191,0.172-135.272-0.143c4.359-3.384,8.403-7.686,13.665-9.593c13.063-1.606,26.24-2.108,39.331-3.556
		c13.521-1.305,27.115-0.387,40.665-0.746c2.007,0.115,3.355-1.721,4.932-2.681c19.874-0.703,39.805,0.559,59.692,0.688
		c4.359-0.029,8.445-1.878,12.79-2.108c5.793-0.358,11.6-0.158,17.422-0.344c14.683-0.215,29.394-0.158,44.092-0.545
		c14.353,0.186,28.706-0.43,43.074-0.029c5.205,6.108,9.578,13.063,16.131,17.895c-1.377-6.926-4.187-13.435-6.223-20.16
		c-1.448-3.872,0.86-7.657,2.122-11.213c21.25-53.942,40.951-108.487,63.062-162.071c10.453-25.036,20.404-50.272,30.771-75.322
		c1.291-3.126,1.52-6.538,1.792-9.865C1597.781,424.857,1606.642,420.255,1611.818,414.046z"/>
	<path fill="#10474E" stroke="#10474E" stroke-width="0.5" d="M1293.77,427.983c3.355,1.606,7.112,2.294,10.84,1.692
		c0.946-0.072,2.853-0.244,3.8-0.33c-1.061,8.718,0.731,17.407,0.875,26.111c0.602,13.063-1.807,26.039-4.545,38.729
		c-5.549,15.056-12.346,29.638-18.54,44.45c-5.348,11.428-9.091,23.645-15.644,34.456c1.133-17.049,3.814-34.026,8.015-50.602
		c4.646-20.705,9.249-41.41,13.909-62.101C1293.942,449.663,1293.713,438.78,1293.77,427.983z"/>
	<path fill="#10474E" stroke="#10474E" stroke-width="0.5" d="M940.735,430.779c4.56,13.02,7.069,26.641,10.209,40.063
		c3.126,27.86,4.044,55.964,7.442,83.81c5.535-10.051,8.976-21.121,14.224-31.344c6.166-11.743,10.94-24.132,17.192-35.833
		c4.732-8.732,7.184-18.769,13.78-26.412c-2.208,24.103-9.464,47.318-15.414,70.661c-3.198,13.923-7.714,27.53-9.937,41.668
		c-3.384,19.314-6.338,38.7-9.578,58.043c-2.251,12.36-7.499,24.003-9.464,36.421c8.273-8.876,8.13-22.469,15.744-31.875
		c-0.645,5.85-1.821,11.629-2.796,17.45c3.04-1.291,6.137-2.438,9.206-3.656c-13.249,16.117-29.122,29.81-42.758,45.569
		c-1.706,0.903-3.456,1.706-5.191,2.552c-0.229-0.43-0.703-1.305-0.946-1.735c0.731-2.136,1.506-4.244,2.452-6.28
		c3.886-7.915,9.564-15.687,9.234-24.906c-1.247-3.914-4.588-6.897-8.46-8.101c-9.464-3.413-19.028-6.625-28.133-10.955
		c1.133-6.911,0.975-14.109,3.527-20.705c11.944-25.122,22.627-50.817,34.327-76.053c1.649-3.57,3.427-7.327,3.054-11.385
		c-1.061-17.852-2.81-35.675-4.058-53.527C943.259,466.425,940.807,448.645,940.735,430.779z"/>
	<path fill="#C0BFB8" stroke="#C0BFB8" stroke-width="0.5" d="M1593.336,440.028c0.932-2.309,2.294-4.402,3.929-6.28
		c-0.272,3.327-0.502,6.739-1.792,9.865c-10.367,25.05-20.318,50.286-30.771,75.322c-22.11,53.584-41.812,108.129-63.062,162.071
		c-1.262,3.556-3.57,7.341-2.122,11.213c2.036,6.725,4.847,13.235,6.223,20.16c-6.553-4.832-10.926-11.786-16.131-17.895
		c-14.367-0.402-28.721,0.215-43.074,0.029c15.199-1.391,30.599,0.1,45.855-0.961l1.047-0.531
		c21.121-53.986,42.5-107.885,63.449-161.942C1569.175,500.795,1579.843,469.824,1593.336,440.028z"/>
	<path fill="#0F474F" stroke="#0F474F" stroke-width="0.5" d="M886.119,472.792c9.148-3.24,17.895-7.743,27.358-10.023
		c-1.262,3.656-4.33,6.137-6.969,8.804c-4.631,4.459-8.747,9.593-14.382,12.848c-11.385,6.28-22.87,12.432-34.112,18.985
		c-9.134,9.048-16.461,19.831-25.351,29.122c-2.409,3.011-5.75-0.029-8.259-1.176c1.807-3.312,3.929-6.452,6.409-9.306
		c6.237-7.313,10.539-16.031,16.905-23.229c4.703-5.377,10.955-9.091,15.787-14.339C869.256,477.71,878.591,476.692,886.119,472.792
		z"/>
	<path fill="#0E4750" stroke="#0E4750" stroke-width="0.5" d="M1059.575,465.364c4.388,5.736,6.194,12.905,9.521,19.243
		c8.173,20.232,17.88,39.804,26.097,60.008c0.359,2.352,1.405,7.686-2.481,6.883c-6.94-7.557-13.22-16.346-15.113-26.656
		c-5.578-16.475-11.758-32.779-16.375-49.569C1060.277,472.032,1059.732,468.705,1059.575,465.364z"/>
	<path fill="#10474E" stroke="#10474E" stroke-width="0.5" d="M1232.371,530.764c9.593-13.436,17.149-28.362,28.032-40.837
		c-0.961,8.273-3.771,16.145-5.994,24.147c-3.628,12.174-6.682,24.519-10.74,36.564c-4.603,11.328-10.166,22.268-15.214,33.395
		c-2.896,10.697-1.835,21.981-3.312,32.907c-1.534,6.395-4.875,12.174-7.442,18.196c-2.538,6.008-6.725,11.442-7.757,17.995
		c3.742,6.022,12.202,5.062,18.182,7.341c-3.355,2.524-7.141,6.194-11.715,5.062c-9.306-2.524-17.723-7.513-26.971-10.209
		c-4.646-1.678-7.786,3.857-12.245,3.929c-13.493-0.201-26.799-3.785-40.335-2.911c5.707,6.223,12.145,11.715,18.01,17.794
		c8.732,7.198,14.769,16.848,21.68,25.666c3.413,4.33,6.409,8.962,9.406,13.607c-14.425,0.129-28.85,0.244-43.274,0.057
		c0.602-7.585,3.068-15.572,0.158-22.956c-2.868-7.069-6.323-13.894-9.263-20.935c-2.179-4.402-3.671-9.435-7.241-12.948
		c-8.517-4.56-16.848,3.642-25.523,1.448c-11.858-2.136-23.931-2.61-35.833-4.402c-4.746-0.817-9.607-0.803-14.181,0.803
		c-4.76-1.792-9.679-3.097-14.568-4.445c3.198-0.316,6.381-0.774,9.593-0.918c17.278-1.075,33.825,5.965,51.075,5.664
		c5.693-0.158,11.127-2.05,16.633-3.312c9.191-2.237,18.698-0.315,28.018-1.204c-5.133-4.717-11.457-7.772-17.307-11.442
		c-8.23-5.635-18.583-1.133-27.602-3.972c3.212-5.865,9.249-9.908,11.6-16.188c-0.344-10.525-6.08-19.902-7.714-30.183
		c-0.631-2.567,2.251-3.742,3.886-5.019c9.334-5.549,18.884-10.725,28.391-15.973c6.997,3.183,13.622,7.126,20.261,11.026
		c6.768,4,11.371,10.596,17.608,15.299c3.126,2.251,5.535,5.291,7.298,8.718c10.639-11.901,20.246-24.677,30.599-36.822
		C1217.86,555.025,1223.983,542.12,1232.371,530.764z"/>
	<path fill="#0E474F" stroke="#0E474F" stroke-width="0.5" d="M1394.443,535.165c0.631-2.853,0.602-6.237,3.183-8.144
		c-1.032,16.576,0.932,33.237-0.43,49.77c-4.416,13.737-10.467,26.885-15.256,40.493c-1.319,3.198-2.337,6.811-5.033,9.162
		c-7.772,1.52-15.515,3.886-23.487,3.8c1.089-4.918,5.033-8.245,8.073-11.973c4.789-5.721,9.464-11.543,14.482-17.049
		c3.111-3.742,6.811-7.499,7.671-12.489C1387.101,570.855,1391.13,553.075,1394.443,535.165z"/>
	<path fill="#0F474F" stroke="#0F474F" stroke-width="0.5" d="M1334.09,593.682c0.99-1.376,2.323-2.466,3.628-3.585
		c-2.452,10.324-8.589,19.214-12.862,28.821c-4.732,9.205-9.22,18.54-13.005,28.176c5.922-2.595,12.432-2.438,18.755-2.767
		c10.496-0.946,21.035-1.004,31.56-1.319c6.194-0.531,11.571,3.527,15.73,7.657c0.961,2.251-2.409,2.567-3.742,3.198
		c-8.718,2.337-17.551,4.173-26.168,6.811c-6.61,2.136-13.507,0.387-20.232,0.029c-7.628-0.531-15.385,0.1-22.899-1.563
		c-2.925-0.688-4.373-3.642-6.209-5.707c-4.789,2.997-9.32,7.499-15.471,5.463c3.613-6.754,6.51-14.038,11.184-20.146
		c2.065,1.233,4.115,2.509,6.194,3.757c4.488-4.789,6.008-11.385,9.636-16.748C1317.716,614.76,1326.462,604.622,1334.09,593.682z"
		/>
	<path fill="#9C9D9D" stroke="#9C9D9D" stroke-width="0.5" d="M859.09,600.479c2.882-2.982,5.621-6.381,9.65-7.858
		c8.188,14.54,17.493,28.491,24.677,43.561c-3.843-2.925-7.298-6.266-10.654-9.707c-3.241-3.413-7.872-4.746-12.159-6.266
		C866.962,613.513,862.703,607.189,859.09,600.479z"/>
	<path fill="#DBDEDD" stroke="#DBDEDD" stroke-width="0.5" d="M868.74,592.621c2.61,0.315,5.664-0.43,8.001,1.075
		c3.843,5.922,6.668,12.432,10.152,18.583c5.563,10.682,11.829,21.035,16.776,32.033c-4.617-0.889-7.528-4.646-10.252-8.13
		C886.233,621.112,876.927,607.16,868.74,592.621z"/>
	<path fill="#10474E" stroke="#10474E" stroke-width="0.5" d="M805.148,596.65c6.926-1.764,13.192,2.638,19.501,4.732
		c8.331,2.81,15.299,8.259,22.684,12.848c4.918-1.319,10.596-2.309,14.353,2.036c-8.359-3.47-16.346,1.792-24.032,4.474
		c-0.66,4.101-1.262,8.216-1.85,12.331c-4.617,1.764-9.306,3.37-14.066,4.674c0.502-1.52,0.989-3.04,1.491-4.545
		c-4.861-5.248-9.478-10.883-15.328-15.056c-10.912-4.617-24.204,0.502-34.427-6.151
		C782.951,605.024,793.591,599.231,805.148,596.65z"/>
	<path fill="#F4A07E" stroke="#F4A07E" stroke-width="0.5" d="M837.654,620.739c7.686-2.681,15.672-7.944,24.032-4.474
		c2.825,1.606,5.836,2.882,8.919,3.943c4.287,1.52,8.919,2.854,12.159,6.266c3.355,3.441,6.811,6.782,10.654,9.707
		c2.724,3.484,5.635,7.241,10.252,8.13c1.305,0.488,2.581,1.018,3.871,1.606c9.105,4.33,18.669,7.542,28.133,10.955
		c3.871,1.204,7.212,4.187,8.46,8.101c0.33,9.22-5.348,16.991-9.234,24.906c-3.714-4.646-7.126-9.521-10.553-14.353
		c-4.603,0.731-9.406,1.075-13.765-0.817c-6.323-2.495-13.407-3.943-18.44-8.775c-5.793-5.291-10.912-11.815-18.54-14.54
		c-9.378-3.556-18.339-8.13-27.946-11.069c4.732,5.019,10.439,8.947,15.715,13.349c9.005,7.614,19.744,12.676,29.61,19.042
		c6.438,4.216,13.722,7.198,19.716,12.102c1.118,4.445,0.359,9.12,0.287,13.665c5.635,0.401,11.27,0.889,16.948,0.975
		c-4.56,2.079-9.578,3.011-14.554,2.767c-5.506-2.638-11.127-5.449-17.278-5.994c-4.588-0.774-9.951-0.057-13.579-3.527
		c-4.388-3.814-8.761-7.786-14.167-10.109c-13.335-6.209-26.068-13.722-39.718-19.243c15.056,11.901,31.216,22.368,46.816,33.553
		c5.391,4.23,7.786,11.256,13.78,14.912l-1.061,0.502c-10.138,2.108-20.519,0.903-30.771,1.19
		c-10.31-0.301-20.777,0.989-30.929-1.319c-5.578-2.581-11.471-4.345-17.006-6.997c1.893-5.463,3.872-11.256,2.825-17.12
		c-1.176-4.359-3.298-8.403-4.459-12.761c1.032-3.37,2.18-6.725,3.054-10.138c1.348-4.603,1.878-9.392,3.198-13.995
		c1.749-4.89,5.377-8.804,7.657-13.435c4.76-1.305,9.449-2.911,14.066-4.674C836.392,628.955,836.994,624.84,837.654,620.739z"/>
	<path fill="#D8612F" stroke="#D8612F" stroke-width="0.5" d="M845.655,640.326c9.607,2.939,18.569,7.513,27.946,11.069
		c7.628,2.724,12.747,9.249,18.54,14.54c5.033,4.832,12.116,6.28,18.44,8.775c4.359,1.893,9.162,1.549,13.765,0.817
		c3.427,4.832,6.84,9.707,10.553,14.353c-0.946,2.036-1.721,4.144-2.452,6.28c-1.42,1.219-2.839,2.481-4.517,3.298
		c-5.678-0.086-11.313-0.573-16.948-0.975c0.072-4.545,0.832-9.22-0.287-13.665c-5.994-4.904-13.278-7.886-19.716-12.102
		c-9.865-6.366-20.605-11.428-29.61-19.042C856.093,649.273,850.386,645.345,845.655,640.326z"/>
	<path fill="#F4A07E" stroke="#F4A07E" stroke-width="0.5" d="M981.342,649.775c2.724-2.294,5.291-6.065,9.378-5.148
		c15.199,1.62,30.671,1.362,45.511,5.406c4.89,1.348,9.808,2.653,14.568,4.445c5.076,5.592,10.109,11.227,15.414,16.604
		c2.538,2.796,5.75,5.549,6.08,9.593c0.989,6.639,1.835,13.321,2.251,20.031c0.344,2.495-2.28,3.972-4.029,5.191
		c-6.653,3.513-14.54,3.083-21.422,5.979c2.495,0.401,5.033,0.731,7.542,1.204c-14.898,0-29.796,0.789-44.694,0.344
		c5.019-10.138,11.629-19.329,17.465-28.979c-7.815,5.076-14.984,11.041-22.297,16.791c-3.871,2.896-5.205,7.729-6.539,12.145
		c-2.409,0.014-4.818,0.043-7.198,0.1c-0.531-16.088,12.36-27.53,17.708-41.697c-6.581,4.99-11.872,11.371-17.579,17.264
		c-6.467,6.754-10.195,15.443-14.324,23.688l-0.76-0.502c-1.405-1.735-2.753-3.47-4.072-5.219c-2.266-0.014-4.517-0.029-6.754-0.014
		c0.459-7.427,4.588-13.751,8.073-20.089c4.861-8.302,11.17-15.629,16.217-23.817c-10.912,9.005-23.487,17.149-30.169,30.068
		c-2.208,4.072-4.961,7.843-8.302,11.084c-5.033-2.825-10.324-5.262-14.826-8.904C952.22,679.586,968.093,665.892,981.342,649.775z"
		/>
	<path fill="#0F474F" stroke="#0F474F" stroke-width="0.5" d="M795.368,660.114c2.896-2.868,6.237-5.234,9.922-6.94
		c0.574,4.918,1.262,9.836,2.466,14.669c0.416-1.133,1.233-3.37,1.635-4.488c0.373,0.444,1.118,1.362,1.491,1.821
		c-0.875,3.413-2.022,6.768-3.054,10.138c-0.645-1.764-1.319-3.499-1.993-5.234c-6.037,4.173-12.718,7.514-18.138,12.503
		c-2.423,4.101-2.911,8.976-3.972,13.55c-2.538,0.272-7.786,2.925-7.901-1.319c1.319-6.954,5.148-13.12,7.27-19.831
		C785.03,668.53,790.823,664.63,795.368,660.114z"/>
	<path fill="#165A65" stroke="#165A65" stroke-width="0.5" d="M1050.799,654.478c4.574-1.606,9.435-1.62,14.181-0.803
		c11.901,1.792,23.974,2.266,35.833,4.402c8.675,2.194,17.006-6.008,25.523-1.448c3.57,3.513,5.062,8.546,7.241,12.948
		c2.939,7.04,6.395,13.866,9.263,20.935c2.911,7.384,0.444,15.371-0.158,22.956c-28.677-0.029-57.384,0.487-86.047-0.387
		c-2.509-0.473-5.047-0.803-7.542-1.204c6.883-2.896,14.769-2.466,21.422-5.979c1.749-1.219,4.373-2.696,4.029-5.191
		c-0.416-6.711-1.262-13.392-2.251-20.031c-0.33-4.044-3.542-6.797-6.08-9.593C1060.908,665.706,1055.875,660.071,1050.799,654.478z
		"/>
	<path fill="#D6612F" stroke="#D6612F" stroke-width="0.5" d="M828.634,663.354c13.651,5.52,26.383,13.034,39.718,19.243
		c5.406,2.323,9.779,6.295,14.167,10.109c3.628,3.47,8.99,2.753,13.579,3.527c6.151,0.545,11.772,3.355,17.278,5.994
		c0.817,0.774,1.635,1.592,2.438,2.438c-9.478-1.032-18.425,2.796-26.584,7.155c-5.994-3.656-8.388-10.682-13.78-14.912
		C859.85,685.723,843.69,675.255,828.634,663.354z"/>
	<path fill="#D76130" stroke="#D76130" stroke-width="0.5" d="M961.713,693.164c6.682-12.919,19.257-21.064,30.169-30.068
		c-5.047,8.188-11.356,15.515-16.217,23.817c-3.484,6.338-7.614,12.661-8.073,20.089c-4.904,0.287-9.965,0.029-14.181-2.753
		C956.751,701.008,959.504,697.237,961.713,693.164z"/>
	<path fill="#D76130" stroke="#D76130" stroke-width="0.5" d="M993.502,689.049c5.707-5.893,10.998-12.274,17.579-17.264
		c-5.348,14.167-18.239,25.609-17.708,41.697c-4.746,0.014-9.535,0.244-14.195-0.746
		C983.307,704.492,987.035,695.803,993.502,689.049z"/>
	<path fill="#10474E" stroke="#10474E" stroke-width="0.5" d="M1298.186,681.106c16.088-0.488,32.062,2.853,48.121,3.742
		c11.873,0.229,23.745-0.287,35.618-0.774c5.42,0.014,10.869-0.315,16.074-1.979c1.964,4.13,3.384,8.503,4.445,12.962
		c-5.822,0.186-11.629-0.014-17.422,0.344c-4.345,0.229-8.431,2.079-12.79,2.108c-19.888-0.129-39.819-1.391-59.692-0.688
		c-13.55,1.821-27.229,0.373-40.822,1.018c-1.979-0.129-3.786,0.688-4.775,2.409c-13.091,1.448-26.269,1.95-39.331,3.556
		c-5.262,1.907-9.306,6.209-13.665,9.593c-8.933-0.129-17.837,0.215-26.756,0.029c3.542-8.646,7.513-17.106,11.829-25.394
		c9.75,1.104,18.77,6.395,28.706,5.879C1251.385,690.698,1274.8,685.852,1298.186,681.106z"/>
	<path fill="#D76131" stroke="#D76131" stroke-width="0.5" d="M1007.109,701.237c7.313-5.75,14.482-11.715,22.297-16.791
		c-5.836,9.65-12.446,18.841-17.465,28.979c-3.8-0.043-7.6-0.1-11.371-0.043C1001.904,708.966,1003.238,704.134,1007.109,701.237z"
		/>
	<path fill="#185964" stroke="#185964" stroke-width="0.5" d="M933.393,697.896c1.735-0.846,3.484-1.649,5.191-2.552
		c4.502,3.642,9.793,6.08,14.826,8.904c4.216,2.782,9.277,3.04,14.181,2.753c2.237-0.014,4.488,0,6.754,0.014
		c1.319,1.749,2.667,3.484,4.072,5.219c-12.762,2.81-25.953,0.746-38.901,1.305C938.183,708.077,936.362,702.7,933.393,697.896z"/>
	<path fill="#9D9E9D" stroke="#9D9E9D" stroke-width="0.5" d="M927.93,699.459c1.678-0.817,3.097-2.079,4.517-3.298
		c0.244,0.43,0.717,1.305,0.946,1.735c2.968,4.803,4.789,10.18,6.123,15.644c-5.191,0.1-10.367-0.158-15.486-0.961
		c-2.954-2.409-5.678-5.076-8.216-7.915c-0.803-0.846-1.62-1.663-2.438-2.438C918.352,702.47,923.371,701.538,927.93,699.459z"/>
	<path fill="#0D2D32" stroke="#0D2D32" stroke-width="0.5" d="M1271.717,697.839c13.593-0.645,27.272,0.803,40.822-1.018
		c-1.577,0.961-2.925,2.796-4.932,2.681c-13.55,0.358-27.143-0.559-40.665,0.746C1267.931,698.527,1269.738,697.71,1271.717,697.839
		z"/>
	<path fill="#195964" stroke="#195964" stroke-width="0.5" d="M889.23,711.819c8.159-4.359,17.106-8.187,26.584-7.155
		c2.538,2.839,5.262,5.506,8.216,7.915c-11.887,1.462-24.032,1.606-35.861-0.258L889.23,711.819z"/>
	<path fill="#333333" stroke="#333333" stroke-width="0.5" d="M797.175,713.482c9.765-0.115,19.644,0.76,29.294-1.291
		c10.152,2.309,20.619,1.018,30.929,1.319c10.252-0.287,20.634,0.918,30.771-1.19c11.829,1.864,23.974,1.721,35.861,0.258
		c5.119,0.803,10.295,1.061,15.486,0.961c12.948-0.559,26.14,1.506,38.901-1.305l0.76,0.502c4.66,0.989,9.449,0.76,14.195,0.746
		c2.38-0.057,4.789-0.086,7.198-0.1c3.771-0.057,7.571,0,11.371,0.043c14.898,0.444,29.796-0.344,44.694-0.344
		c28.663,0.875,57.37,0.358,86.047,0.387c14.425,0.186,28.85,0.072,43.274-0.057l1.233,0.014c8.919,0.186,17.823-0.158,26.756-0.029
		c45.081,0.315,90.177,0.057,135.272,0.143c152.005-0.029,304.025,0.072,456.03-0.043c215.483,0.086,430.952-0.143,646.435,0.115
		c-0.143,15.672,0.014,31.345-0.029,47.017c-127.543,0.33-255.087,0.086-382.63,0.129c-13.493,0.129-26.985,0.229-40.478-0.201
		c-76.827,0.516-153.683,0.072-230.524,0.215c-183.536,0-367.073,0.014-550.609,0c-5.907-0.229-11.801,0.029-17.651,0.746
		c-13.651-1.735-27.43-0.502-41.138-0.846c-15.185,0.186-30.384-0.416-45.554,0.387c-17.307-1.018-34.628,0.1-51.949-0.272
		c-96.098-0.072-192.211,0.086-288.295-0.086c-2.982-0.287-5.449,1.448-7.757,3.04c-2.954-1.377-5.951-2.968-9.292-2.939
		c-102.823-0.057-205.647,0.014-308.47-0.043c-13.737,0.115-27.473,0.115-41.195-0.029c-131.515,0.086-263.016,0.072-394.531,0
		c-0.158-15.73-0.1-31.445-0.043-47.175c228.058-0.158,456.116,0.057,684.174-0.115
		C749.527,713.626,773.344,713.497,797.175,713.482z"/>
	<path fill="#262626" stroke="#262626" stroke-width="0.5" d="M2028.546,760.557c13.493,0.43,26.986,0.33,40.478,0.201
		c0.559,76.971,0.072,153.97,0.244,230.955c0,161.067-0.014,322.135,0,483.217c-0.129,54.918,0.229,109.849-0.172,164.767
		c-1.205,2.136-3.183,3.656-5.735,3.441c-11.084,0.158-22.182,0.229-33.252-0.244c-0.731-34.47-0.1-68.969-0.301-103.454
		c-0.014-252.348,0.029-504.71-0.014-757.073c-0.143-6.883,0.817-13.88-0.961-20.619L2028.546,760.557z"/>
	<path fill="#262626" stroke="#262626" stroke-width="0.5" d="M436.111,760.729c13.722,0.143,27.459,0.143,41.195,0.029
		c0.086,294.518-0.043,589.037,0.072,883.555c-13.722,0.201-27.487,0.588-41.195-0.244c0.315-163.921,0.043-327.842,0.143-491.762
		C436.168,1021.78,436.598,891.255,436.111,760.729z"/>
	<path fill="#10474E" stroke="#10474E" stroke-width="0.5" d="M795.067,763.74c2.309-1.592,4.775-3.327,7.757-3.04
		c96.084,0.172,192.197,0.014,288.295,0.086c17.321,0.373,34.642-0.746,51.949,0.272c-37.697,12.016-77.372,15.586-116.087,23.057
		c-21.838,3.269-43.489,7.585-65.313,10.84c-2.022,0.072-5.506,0.975-6.137-1.721c-3.155-9.736-4.359-20.017-7.886-29.653
		c-7.456,5.477-11.715,14.152-19.3,19.472c-15.228,10.912-31.058,21.021-45.583,32.865c2.022-0.129,4.058-0.229,6.108-0.33
		c-7.944,5.922-16.361,11.17-24.605,16.647c-6.682,3.986-12.604,9.277-19.917,12.145c3.011-5.535,8.976-8.603,12.245-13.909
		c0.846-5.391,1.276-10.926,0.875-16.36c-4.273-5.764-9.55-10.697-14.167-16.174c-4.961-5.09-9.091-11.041-14.64-15.529
		C817.708,775.77,805.822,770.723,795.067,763.74z"/>
	<path fill="#165A65" stroke="#165A65" stroke-width="0.5" d="M1143.069,761.059c15.17-0.803,30.37-0.201,45.554-0.387
		c13.708,0.344,27.487-0.889,41.138,0.846c0.315,7.542,3.57,14.468,5.492,21.68c5.033,16.002,9.822,32.104,14.855,48.121
		c2.079,6.381,3.57,13.02,6.696,19.028c2.395,5.205,5.721,10.023,7.399,15.543c-1.147,1.061-2.423,2.079-4.072,2.036
		c-12.532,0.961-25.136,0.172-37.654,1.233c-11.012,0.975-22.096,0.387-33.108,1.305c-9.879,1.032-19.773,0.014-29.638-0.559
		c-16.203-4.087-32.893-5.391-49.368-7.872c-7.212-0.961-14.367-2.251-21.58-2.997c-6.438-0.789-12.26,2.638-18.167,4.603
		c-37.869,13.306-75.737,26.67-113.62,39.977c-6.137,2.366-10.539,7.485-15.156,11.944c-12.618,13.206-25.795,25.853-38.715,38.758
		c0-0.731,0.014-2.194,0.014-2.925c-6.037,5.019-10.467,11.571-15.701,17.364c-5.463,6.151-10.611,12.618-14.955,19.63
		c-3.958-0.487-7.929-0.989-11.801-1.893c-8.173-2.896-17.551-2.395-24.749-7.729c-11.227-7.198-23.372-12.847-34.485-20.203
		c5.735-28.964,12.088-57.8,17.809-86.764c0.832-6.18,6.739-9.464,10.539-13.78c5.019-4.345,8.804-10.209,14.554-13.636
		c7.313-2.868,13.235-8.159,19.917-12.145c8.245-5.477,16.662-10.725,24.605-16.647c-2.05,0.1-4.087,0.201-6.108,0.33
		c14.525-11.844,30.355-21.953,45.583-32.865c7.585-5.32,11.844-13.995,19.3-19.472c3.527,9.636,4.732,19.917,7.886,29.653
		c0.631,2.696,4.115,1.792,6.137,1.721c21.824-3.255,43.475-7.571,65.313-10.84C1065.697,776.645,1105.373,773.074,1143.069,761.059
		 M1196.639,813.352c-2.108,2.022-5.334,1.477-7.958,1.735c-19.63-0.043-39.274,0.014-58.904-0.057
		c-3.986-0.215-7.829,1.405-10.338,4.531c6.123,4.746,13.034,8.345,19.687,12.303c2.868,1.878,6.338,1.663,9.607,1.262
		c21.379-2.122,42.801-4.015,64.109-6.682c-0.903-12.847-1.979-25.767-4.431-38.428
		C1201.744,794.841,1201.543,805.394,1196.639,813.352 M990.634,833.928c-25.035,5.477-49.956,11.471-75.049,16.705
		c-3.155,0.803-6.739,1.291-9.019,3.828c-15.515,18.411-31.345,36.549-46.902,54.917c-3.226,4.431-7.399,8.03-12.016,10.955
		c0.817,2.337,1.721,4.646,2.681,6.969c20.16-18.999,39.245-39.159,59.076-58.531c6.61-4.717,14.869-6.352,22.383-9.177
		c20.103-7.184,40.278-14.195,60.395-21.35c5.707-2.538,12.131-3.441,17.393-6.94C1003.109,830.53,996.857,832.537,990.634,833.928
		 M993.932,867.352c-19.888,3.556-39.79,7.112-59.664,10.668c-3.312,1.133-5.219,4.316-7.27,6.94
		c-3.341,4.789-7.542,9.062-9.693,14.597c10.453-2.882,20.375-7.427,30.685-10.768c5.205-0.832,10.654,0.416,15.715-1.506
		c16.647-5.893,34.772-8.044,50.042-17.407c2.208-1.248,3.083-3.728,4.23-5.807C1009.833,863.911,1001.904,866.004,993.932,867.352z
		"/>
	<path stroke="#000000" stroke-width="0.5" d="M2028.833,761.747c1.778,6.739,0.817,13.737,0.961,20.619
		c0.043,252.362,0,504.725,0.014,757.073c0.201,34.485-0.43,68.984,0.301,103.454c11.069,0.473,22.168,0.401,33.252,0.244
		c2.552,0.215,4.531-1.305,5.735-3.441c-0.057,1.104-0.172,3.341-0.229,4.459c-13.392,0.315-26.799,0.115-40.177,0.1
		c-0.215-235.199-0.029-470.398-0.086-705.597C2028.747,879.683,2028.288,820.708,2028.833,761.747z"/>
	<path fill="#10474E" stroke="#10474E" stroke-width="0.5" d="M1196.639,813.352c4.904-7.958,5.105-18.511,11.772-25.337
		c2.452,12.661,3.527,25.58,4.431,38.428c-21.307,2.667-42.73,4.56-64.109,6.682c-3.269,0.401-6.739,0.617-9.607-1.262
		c-6.653-3.958-13.564-7.557-19.687-12.303c2.509-3.126,6.352-4.746,10.338-4.531c19.63,0.072,39.274,0.014,58.904,0.057
		C1191.305,814.829,1194.531,815.374,1196.639,813.352z"/>
	<path fill="#0E474F" stroke="#0E474F" stroke-width="0.5" d="M990.634,833.928c6.223-1.391,12.475-3.398,18.942-2.624
		c-5.262,3.499-11.686,4.402-17.393,6.94c-20.117,7.155-40.292,14.167-60.395,21.35c-7.513,2.825-15.773,4.459-22.383,9.177
		c-19.831,19.372-38.915,39.532-59.076,58.531c-0.961-2.323-1.864-4.631-2.681-6.969c4.617-2.925,8.79-6.524,12.016-10.955
		c15.558-18.368,31.388-36.507,46.902-54.917c2.28-2.538,5.865-3.026,9.019-3.828C940.678,845.399,965.598,839.406,990.634,833.928z
		"/>
	<path fill="#0D2D32" stroke="#0D2D32" stroke-width="0.5" d="M1070.616,863.638c5.908-1.964,11.729-5.391,18.167-4.603
		c7.212,0.746,14.367,2.036,21.58,2.997c16.475,2.481,33.166,3.785,49.368,7.872c4.445,1.764,8.847,3.642,13.307,5.434
		c-33.567-1.161-67.077-4.173-100.63-5.836c-3.786-0.186-7.614,0.416-10.984,2.165c-13.593,6.653-27.545,12.503-41.152,19.099
		c-10.439,5.219-21.68,9.076-30.957,16.346c-9.98,6.739-18.597,15.687-29.911,20.275c-3.226,1.305-6.108,3.341-8.202,6.137
		c-5.621,7.413-13.98,11.858-21.107,17.608c-5.693,3.9-10.639,9.062-17.02,11.858c-4.087,0.373-7.657-2.638-11.242-4.23
		c0.416-1.491,0.846-2.982,1.291-4.445c12.919-12.905,26.097-25.552,38.715-38.758c4.617-4.459,9.019-9.578,15.156-11.944
		C994.878,890.308,1032.747,876.945,1070.616,863.638z"/>
	<path fill="#0F474F" stroke="#0F474F" stroke-width="0.5" d="M993.932,867.352c7.972-1.348,15.902-3.441,24.046-3.284
		c-1.147,2.079-2.022,4.56-4.23,5.807c-15.271,9.363-33.395,11.514-50.042,17.407c-5.062,1.921-10.51,0.674-15.715,1.506
		c-10.31,3.341-20.232,7.886-30.685,10.768c2.151-5.535,6.352-9.808,9.693-14.597c2.05-2.624,3.958-5.807,7.27-6.94
		C954.142,874.464,974.044,870.908,993.932,867.352z"/>
	<path fill="#15444A" stroke="#15444A" stroke-width="0.5" d="M1260.131,867.925c1.649,0.043,2.925-0.975,4.072-2.036
		c1.047,1.491,2.466,2.753,4.388,2.954c15.156,3.183,30.642,4.846,45.683,8.532c7.585,5.736,14.339,12.532,21.666,18.626
		c9.091,8.23,18.769,15.83,27.545,24.39c0.057,0.975,0.158,2.925,0.201,3.9c-4.445-2.954-9.535-4.646-14.654-6.008
		c-0.717-0.287-2.165-0.832-2.896-1.118c-7.528-4.66-12.891-11.829-19.329-17.751c-3.642-3.57-9.033-3.828-13.737-4.832
		c-11.514-1.678-22.713-5.148-34.356-5.879c-8.704-1.276-18.268-6.037-26.67-1.319c-12.374,6.295-24.806,12.46-37.252,18.626
		c-7.069,3.556-13.737,9.277-15.859,17.192c-0.258-0.43-0.774-1.319-1.032-1.764c-4.388,11.586-10.568,22.354-15.873,33.51
		c-3.714,7.872-8.818,15.256-10.41,23.946c-1.563,8.001-3.155,15.988-4.875,23.946c-1.491,6.667-2.065,13.909-6.309,19.558
		c-7.614,10.697-15.07,21.508-22.34,32.449c6.237,0.115,12.489-0.158,18.741-0.545c2.567,0.172,5.133,0.516,7.714,0.889
		c-7.155,2.939-14.884,3.986-22.182,6.467c-4.431,1.505-9.077,2.351-13.751,2.28c-0.961-3.427-2.036-6.84-3.814-9.922
		c-4.947-8.503-9.105-17.45-12.546-26.641c11.786-0.875,23.731,2.925,35.359,0.803c4.746-5.377,9.033-11.227,12.503-17.493
		c-15.4,1.118-30.714,3.054-46.099,4.33c-11.485,0.86-23.028,3.384-34.542,1.549c-16.647-2.323-33.424-3.685-50.028-6.266
		c3.656-6.868,8.489-13.063,11.743-20.146c-8.202,5.707-13.808,14.396-22.024,19.988c-6.61,0.889-13.292-0.072-19.931-0.287
		c2.366-8.847,7.356-16.69,9.865-25.48c-6.969,3.57-9.636,11.571-15.73,16.102c-7.055,0.932-14.181,0.158-21.264,0.344
		c-9.851-0.215-19.831,0.846-29.552-1.133c-15.801-3.47-31.603-6.969-47.447-10.195c1.405-10.41,4.373-20.519,6.725-30.728
		c3.585,1.592,7.155,4.603,11.242,4.23c6.381-2.796,11.328-7.958,17.02-11.858c7.126-5.75,15.486-10.195,21.107-17.608
		c2.093-2.796,4.976-4.832,8.202-6.137c11.313-4.588,19.931-13.536,29.911-20.275c9.277-7.27,20.519-11.127,30.957-16.346
		c13.607-6.596,27.559-12.446,41.152-19.099c3.37-1.749,7.198-2.352,10.984-2.165c33.553,1.663,67.062,4.674,100.63,5.836
		c-4.459-1.792-8.861-3.671-13.307-5.434c9.865,0.574,19.759,1.592,29.638,0.559c11.012-0.918,22.096-0.33,33.108-1.305
		C1234.995,868.097,1247.599,868.886,1260.131,867.925z"/>
	<path fill="#F4A07E" stroke="#F4A07E" stroke-width="0.5" d="M1252.044,887.383c8.403-4.717,17.966,0.043,26.67,1.319
		c13.106,3.785,26.369,7.083,39.647,10.238c7.27,1.333,11.227,8.144,15.945,13.106c6.094,6.538,11.371,13.851,18.124,19.745
		c-2.509-5.248-5.793-10.051-8.718-15.056c0.602,0.1,1.821,0.33,2.423,0.43c0.731,0.287,2.18,0.832,2.896,1.118
		c5.506,7.829,14.324,11.944,21.981,17.25c8.589,6.108,18.669,10.568,25.279,19.099c6.18,6.739,11.313,14.554,18.555,20.275
		c0.358,0.287,1.075,0.846,1.434,1.133c0.502,11.557,1.85,23.057,3.025,34.585c-0.76,9.019-4.287,17.536-6.123,26.369
		c-4.703,17.794-8.861,35.761-13.937,53.469c-7.973,16.102-16.633,31.918-25.394,47.605c0.229-2.151,0.373-4.273,0.545-6.395
		c-6.094,7.427-10.783,15.859-16.303,23.688c-8.976,13.952-18.511,27.545-27.358,41.583c-1.778,2.724-3.943,5.162-6.166,7.528
		c5.004-17.995,12.231-35.331,18.024-53.097c3.685-12.073,9.679-23.616,10.725-36.363c3.112-30.613,6.653-61.169,9.966-91.754
		c0.66-5.793,1.333-11.586,1.448-17.422c-3.47,12.575-4.904,25.595-7.528,38.342c-3.8,20.203-7.342,40.45-11.084,60.653
		c-1.678,8.474-5.707,16.217-8.632,24.304c-6.768,17.135-13.55,34.27-20.347,51.39c-4.173,9.994-4.932,20.906-7.155,31.402
		c-4.13,23.516-8.446,47.003-12.862,70.461c-2.194,10.252-0.846,20.762,0.201,31.072c0.373,4.775-1.42,9.32-2.538,13.894
		c-2.38,8.46-0.043,17.221,0.215,25.81c2.911,31.029,4.99,62.144,9.908,92.944c0.559,4.717,1.004,9.435,1.62,14.152
		c-0.129,11.901-0.215,23.817,1.018,35.675c1.348-0.373,2.724-0.703,4.115-1.004c1.061,5.148,3.47,9.837,5.85,14.497
		c6.883,14.597,13.88,29.151,20.978,43.647c2.495,5.277,6.567,9.765,8.03,15.529l-1.907-0.244c-0.817-0.129-2.466-0.373-3.284-0.488
		c3.155,8.403,7.399,16.346,10.797,24.677c-15.558,5.219-31.416,9.478-47.003,14.583c-3.226,0.889-6.754,2.552-9.98,0.817
		c-11.686-5.019-23.487-9.736-35.073-14.941c-3.269-8.589-7.929-16.733-13.966-23.673c-5.104-12.303-9.421-24.906-13.851-37.439
		c-5.033-19.271-9.12-38.786-13.923-58.101c-2.366-10.869-5.75-21.522-6.883-32.621c3.499-7.886,4.703-16.49,7.571-24.591
		c2.552-8.546,5.119-17.092,7.327-25.724c1.448-4.316-1.807-8.044-3.757-11.557c-2.882-4.302-5.176-9.048-5.965-14.195
		c-5.563-31.373-11.686-62.646-17.35-93.991c-3.111,8.575-3.785,17.751-5.879,26.584c-2.18,11.227-5.148,22.34-6.252,33.753
		c-0.846,14.841-1.247,29.71-1.749,44.579c-0.86,24.476,1.219,48.91,2.251,73.357c-2.782,8.46-8.259,15.83-12.159,23.845
		c-8.589,13.751-12.876,29.481-18.554,44.522c-7.7,20.82-14.611,41.97-23.831,62.187c-7.155,5.076-14.296,10.18-21.566,15.113
		c-10.854-9.736-21.996-19.142-32.979-28.721c-3.656-3.068-3.427-8.317-4.717-12.532c-0.674-4.287-2.839-8.704-1.42-13.02
		c5.664-16.303,12.174-32.334,17.479-48.738c0.315-15.299-3.054-30.498-3.312-45.798c0.602-4.431,3.527-8.073,5.42-12.002
		c4.23-7.184,4.144-15.902,8.044-23.229c5.176-4.545,12.374-6.725,16.289-12.647c8.646-13.177,18.325-25.896,23.716-40.88
		c7.055-15.83,14.453-31.517,21.494-47.361c3.37-7.04,6.008-14.396,7.972-21.938c7.012-25.38,14.453-50.63,21.68-75.952
		c2.337-7.886,0.588-16.131,0.186-24.147c-0.975-16.231-3.24-32.377-3.843-48.623c1.319-13.249,6.797-25.681,8.919-38.801
		c4.287-13.134,6.983-26.713,10.998-39.919c9.134-11.829,14.812-25.881,24.218-37.539c-10.969-0.158-21.924,0.502-32.893,0.588
		c-4.603-0.029-9.077,1.075-13.479,2.294c-3.226-0.1-6.452-0.215-9.65-0.315c0.817-11.428,2.208-22.784,3.198-34.184
		c0.516-5.32,0.817-10.74,2.524-15.844c5.836-17.522,11.786-35.001,17.551-52.552c2.122-7.915,8.79-13.636,15.859-17.192
		C1227.238,899.843,1239.67,893.678,1252.044,887.383 M1358.309,940.15c0.903,8.13,1.807,16.26,2.552,24.419
		c1.061,13.464,3.914,26.727,4.416,40.235c1.95-4.115,3.685-8.603,3.155-13.235c-1.678-14.367-4.044-28.635-6.108-42.93
		C1361.979,945.383,1360.33,942.587,1358.309,940.15z"/>
	<path fill="#C26436" stroke="#C26436" stroke-width="0.5" d="M1278.714,888.702c11.643,0.731,22.842,4.201,34.356,5.879
		c4.703,1.004,10.095,1.262,13.737,4.832c6.438,5.922,11.801,13.091,19.329,17.751c-0.602-0.1-1.821-0.33-2.423-0.43
		c2.925,5.004,6.209,9.808,8.718,15.056c-6.754-5.893-12.03-13.206-18.124-19.745c-4.717-4.961-8.675-11.772-15.945-13.106
		C1305.083,895.786,1291.82,892.488,1278.714,888.702z"/>
	<path fill="#CF6234" stroke="#CF6234" stroke-width="0.5" d="M1349.031,918.283c5.119,1.362,10.209,3.054,14.654,6.008
		c10.984,7.657,21.924,15.386,33.151,22.684c4.517,2.782,6.238,8.087,9.249,12.217c3.04,5.133,7.628,9.65,8.761,15.715
		c-7.241-5.721-12.374-13.536-18.555-20.275c-6.61-8.532-16.69-12.991-25.279-19.099
		C1363.356,930.227,1354.538,926.112,1349.031,918.283z"/>
	<path fill="#010101" stroke="#010101" stroke-width="0.5" d="M1197.901,921.438c0.258,0.444,0.774,1.333,1.032,1.764
		c-5.764,17.551-11.715,35.03-17.551,52.552c-1.706,5.105-2.007,10.525-2.524,15.844c-0.989,11.399-2.38,22.756-3.198,34.184
		c3.198,0.1,6.424,0.215,9.65,0.315c9.722,1.864,19.644,2.151,29.452,3.298c-0.717,4.588-1.778,9.134-3.04,13.622
		c-2.308-0.401-4.631-1.104-6.954-0.631c-16.102,3.427-31.416,10.453-47.935,11.916c-6.252,0.387-12.503,0.66-18.741,0.545
		c7.27-10.941,14.726-21.752,22.34-32.449c4.244-5.649,4.818-12.891,6.309-19.558c1.721-7.958,3.312-15.945,4.875-23.946
		c1.592-8.689,6.696-16.074,10.41-23.946C1187.333,943.792,1193.513,933.023,1197.901,921.438z"/>
	<path fill="#CE5F31" stroke="#CE5F31" stroke-width="0.5" d="M1358.309,940.15c2.022,2.438,3.671,5.234,4.015,8.489
		c2.065,14.296,4.431,28.563,6.108,42.93c0.531,4.631-1.204,9.119-3.155,13.235c-0.502-13.507-3.355-26.77-4.416-40.235
		C1360.115,956.41,1359.212,948.28,1358.309,940.15z"/>
	<path fill="#010101" stroke="#010101" stroke-width="0.5" d="M887.438,968.756c5.234-5.793,9.664-12.346,15.701-17.364
		c0,0.731-0.014,2.194-0.014,2.925c-0.445,1.463-0.875,2.954-1.291,4.445c-2.352,10.209-5.32,20.318-6.725,30.728
		c15.844,3.226,31.646,6.725,47.447,10.195c9.722,1.979,19.701,0.918,29.552,1.133c7.083-0.186,14.21,0.588,21.264-0.344
		c6.094-4.531,8.761-12.532,15.73-16.102c-2.509,8.79-7.499,16.633-9.865,25.48c6.639,0.215,13.321,1.176,19.931,0.287
		c8.216-5.592,13.823-14.281,22.024-19.988c-3.255,7.083-8.087,13.278-11.743,20.146c16.604,2.581,33.381,3.943,50.028,6.266
		c11.514,1.835,23.057-0.688,34.542-1.549c15.385-1.276,30.699-3.212,46.099-4.33c-3.47,6.266-7.757,12.116-12.503,17.493
		c-11.629,2.122-23.573-1.678-35.359-0.803c3.441,9.191,7.599,18.139,12.546,26.641c1.778,3.083,2.853,6.495,3.814,9.922
		c-1.936,0.688-3.828,1.491-5.822,1.964c-5.893-1.907-11.27-5.377-15.83-9.521c-3.871-6.739-7.686-13.521-11.944-20.017
		c-32.965-6.137-65.915-12.317-98.88-18.382c-18.468-2.223-37.094-2.882-55.606-4.646c-3.986-0.229-7.284-3.241-11.342-2.968
		c-13.45,0.057-26.885,0.043-40.335,0.043c-10.668-0.617-20.39,4.158-29.681,8.718c-6.409,2.681-6.954,10.668-10.195,16.045
		c-2.724-7.557-4.588-15.357-6.797-23.042c6.209-8.517,12.647-16.877,18.497-25.638c3.871,0.903,7.843,1.405,11.801,1.893
		C876.827,981.374,881.975,974.907,887.438,968.756z"/>
	<path fill="#D36232" stroke="#D36232" stroke-width="0.5" d="M1416.28,976.04c4.531,4.904,9.736,11.399,7.729,18.554
		c-1.161,5.434-2.309,10.969-4.703,16.031C1418.13,999.096,1416.782,987.597,1416.28,976.04z"/>
	<path fill="#D76130" stroke="#D76130" stroke-width="0.5" d="M1357.205,1044.178c2.624-12.747,4.058-25.767,7.528-38.342
		c-0.115,5.836-0.789,11.629-1.448,17.422c-3.312,30.585-6.854,61.141-9.966,91.754c-1.047,12.747-7.04,24.29-10.725,36.363
		c-5.793,17.766-13.02,35.101-18.024,53.097c2.223-2.366,4.388-4.803,6.166-7.528c8.847-14.038,18.382-27.631,27.358-41.583
		c5.521-7.829,10.209-16.26,16.303-23.688c-0.172,2.122-0.316,4.244-0.545,6.395c-5.449,11.916-12.145,23.243-18.339,34.8
		c-7.686,15.472-16.447,30.37-24.978,45.382c-4.689,8.23-10.252,16.031-13.923,24.821c-4.961,17.88-9.12,35.976-13.708,53.971
		c-1.792,5.478-1.979,11.686-5.578,16.418c-1.047-10.31-2.395-20.82-0.201-31.072c4.416-23.458,8.732-46.945,12.862-70.461
		c2.223-10.496,2.982-21.408,7.155-31.402c6.797-17.121,13.579-34.255,20.347-51.39c2.925-8.087,6.954-15.83,8.632-24.304
		C1349.863,1084.627,1353.405,1064.381,1357.205,1044.178z"/>
	<path fill="#9B9B9B" stroke="#9B9B9B" stroke-width="0.5" d="M859.176,1019.128c9.292-4.56,19.013-9.335,29.681-8.718
		c13.45,0,26.885,0.014,40.335-0.043c4.058-0.272,7.356,2.739,11.342,2.968c18.511,1.764,37.137,2.423,55.606,4.646
		c32.965,6.065,65.915,12.245,98.88,18.382c4.259,6.495,8.073,13.278,11.944,20.017c-13.851,1.219-27.76,0.459-41.625,1.118
		c-40.636,0.459-81.258,2.18-121.908,1.979c-20.06-0.014-40.12,0.029-60.18-0.072c2.538,3.857,4.373,9.177,9.378,10.396
		c6.108,1.921,12.389,3.298,18.44,5.492c0.344,2.022,0.703,4.072,1.176,6.108c0.602,0.115,1.807,0.33,2.409,0.43
		c-1.749,2.581-3.57,5.133-5.434,7.657c-18.856-10.826-37.396-22.182-56.194-33.108c-3.226-1.964-7.083-3.241-9.507-6.252
		c0.272-5.377,3.484-10.08,5.463-14.955C852.222,1029.796,852.767,1021.809,859.176,1019.128z"/>
	<path fill="#D66131" stroke="#D66131" stroke-width="0.5" d="M1185.311,1026.096c4.402-1.219,8.876-2.323,13.479-2.294
		c10.969-0.086,21.924-0.746,32.893-0.588c-9.406,11.657-15.084,25.709-24.218,37.539c1.333-5.936,2.61-11.887,4.259-17.737
		c1.262-4.488,2.323-9.033,3.04-13.622C1204.956,1028.247,1195.033,1027.96,1185.311,1026.096z"/>
	<path fill="#2A2A2A" stroke="#2A2A2A" stroke-width="0.5" d="M1156.835,1054.301c16.518-1.463,31.832-8.489,47.935-11.916
		c2.323-0.473,4.646,0.229,6.954,0.631c-1.649,5.85-2.925,11.801-4.259,17.737c-4.015,13.206-6.711,26.785-10.998,39.919
		c-6.18,2.079-10.596,7.026-15.586,10.94c-6.883,5.549-13.694,11.213-20.605,16.748c-2.05,28.391-1.764,56.896-3.456,85.33
		c-8.503-0.287-16.977-0.875-25.451-1.405c-11.399-0.875-22.813-1.147-34.212-1.577c-0.774-0.029-2.323-0.086-3.083-0.115
		c3.556-5.965,6.108-13.206,12.288-17.006c-2.208-12.002-3.699-24.147-6.223-36.076c-4.832-4.904-11.801-7.055-16.877-11.686
		c-3.427-5.391-5.621-11.471-8.603-17.092c-2.122-4.889-5.219-9.392-6.668-14.525c4.316-4.488,8.89-10.023,15.758-9.808
		c21.178-1.391,42.357-2.896,63.549-4.216c-13.693-3.327-27.803-4.402-41.654-6.854c-7.284-0.989-14.683-3.441-22.039-1.635
		c-12.532,2.839-24.777,6.883-37.496,8.89c-9.965-0.201-19.73-2.81-29.609-3.886c-33.954-4.947-67.88-10.094-101.848-14.869
		c-0.602-0.1-1.807-0.315-2.409-0.43c-0.473-2.036-0.832-4.087-1.176-6.108c-6.051-2.194-12.331-3.57-18.44-5.492
		c-5.004-1.219-6.84-6.539-9.378-10.396c20.06,0.1,40.12,0.057,60.18,0.072c40.65,0.201,81.272-1.52,121.908-1.979
		c13.865-0.66,27.774,0.1,41.625-1.118c4.56,4.144,9.937,7.614,15.83,9.521c1.993-0.473,3.886-1.276,5.822-1.964
		c4.674,0.072,9.32-0.774,13.751-2.28c7.298-2.481,15.027-3.527,22.182-6.467
		C1161.968,1054.817,1159.401,1054.473,1156.835,1054.301z"/>
	<path fill="#010101" stroke="#010101" stroke-width="0.5" d="M1083.607,1091.696c7.356-1.807,14.755,0.645,22.039,1.635
		c13.851,2.452,27.961,3.527,41.654,6.854c-21.193,1.319-42.371,2.825-63.549,4.216c-6.868-0.215-11.442,5.32-15.758,9.808
		c-2.108-3.47-3.929-7.098-5.764-10.697c-5.391-0.918-10.912-1.219-16.117-2.925
		C1058.829,1098.579,1071.074,1094.535,1083.607,1091.696z"/>
	<path fill="#A3A3A3" stroke="#A3A3A3" stroke-width="0.5" d="M1097.157,1210.708c11.399,0.43,22.813,0.703,34.212,1.577
		c-1.979,19.228-3.384,38.528-4.517,57.814c-5.062,0.057-10.123,0.1-15.17-0.086c-4.775-5.32-10.037-10.152-15.013-15.285
		c-0.674-2.051-0.315-4.244-0.215-6.323c0.688-7.671,0.531-15.385,1.448-23.014
		C1098.505,1220.487,1098.677,1215.454,1097.157,1210.708z"/>
	<path fill="#010101" stroke="#010101" stroke-width="0.5" d="M1095.364,1269.97c0.186-5.105-0.072-10.281,1.305-15.242
		c4.976,5.133,10.238,9.965,15.013,15.285c-3.298,13.722-6.883,27.401-9.464,41.281c-2.724,25.251-4.488,50.587-7.112,75.852
		c-3.384-0.086-6.768-0.115-10.137-0.1c0.487-38.987,2.438-77.931,2.982-116.904
		C1090.403,1270.085,1092.884,1269.984,1095.364,1269.97z"/>
	<path fill="#2A2A2A" stroke="#2A2A2A" stroke-width="0.5" d="M1111.682,1270.013c5.047,0.186,10.109,0.143,15.17,0.086
		c3.728-0.043,7.456,0.029,11.199,0.1c0.588,29.108,1.706,58.187,2.007,87.294c-5.391,14.984-15.07,27.703-23.716,40.88
		c-3.915,5.922-11.113,8.101-16.289,12.647c-7.643,0.488-13.866,5.736-20.017,9.793c-11.428,8.689-23.2,16.92-34.499,25.767
		c-0.072,6.495-0.186,13.005-0.043,19.515c-34.227,23.229-68.21,46.816-102.393,70.102c-2.81,1.95-6.18,3.613-7.571,6.969
		c-2.968,6.123-5.822,12.317-8.144,18.727c3.155-0.86,6.338-1.606,9.578-2.108c5.607,10.682,12.962,20.461,18.11,31.345
		c-2.022,12.647-5.75,25.007-8.431,37.553c-1.649,5.291-1.835,11.098-4.502,16.031c-0.502-4.589-0.875-9.163-1.204-13.722
		c-0.531-7.456-0.373-14.941-1.104-22.369c0.158-2.509-2.696-2.911-4.345-3.843c-7.944-3.226-15.586-7.212-23.587-10.238
		c-7.126,4.144-12.962,10.467-19.458,15.615c-0.272,7.413-0.674,14.826-0.889,22.268c-0.258,0.789-0.746,2.38-0.989,3.183
		c-1.032-0.072-3.097-0.229-4.13-0.301c-1.721-16.891-4.531-33.911-2.839-50.903c3.212-3.886,7.212-7.04,10.482-10.883
		c-4.603-0.918-9.292-1.075-13.937-1.233c9.292-21.594,19.486-42.801,28.964-64.324c1.061-2.136,1.821-4.689,4.015-5.936
		c27.66-15.859,55.62-31.244,83.136-47.375c2.724-1.807,6.753-2.38,8.073-5.735c1.692-3.126,3.298-6.295,5.133-9.335
		c-20.619,2.438-41.181,5.363-61.786,7.901c-5.277,0.559-10.553,1.42-15.572,3.183c-13.536,4.632-26.871,9.822-40.536,14.066
		c0.817,0.115,2.466,0.33,3.298,0.444c-6.84,2.122-14.267,1.362-21.193,3.298c-14.267,3.642-28.391,7.872-42.615,11.729
		c-6.381,1.864-13.292,2.839-18.712,7.012c-14.066,10.094-28.678,19.429-42.816,29.423c7.126,4.259,14.855,7.37,22.139,11.385
		c-1.506,16.733-4.043,33.381-6.037,50.071c-1.506,0.445-2.997,0.903-4.488,1.362c-1.047-7.671-0.473-15.658-2.309-23.143
		c-4.56-5.621-10.252-10.209-15.099-15.543c-10.51,2.739-20.748,6.381-31.273,9.048c-0.115,6.496,0.344,13.005,0.817,19.515
		c-0.029,1.922-0.086,3.857-0.201,5.822c-4.445-1.018-8.89-1.993-13.335-2.954c1.276-18.64,6.754-36.535,10.983-54.631
		c0.717-1.678,0.373-4.23,2.237-5.104c5.09-0.502,10.209-0.144,15.328-0.215c7.714-10.539,15.199-21.221,22.799-31.832
		c2.194-3.441,6.352-4.416,9.851-5.936c23.344-9.549,46.615-19.271,69.916-28.921c5.578-2.223,10.983-5.205,17.034-5.908
		c44.335-4.603,88.671-9.22,133.021-13.823c6.252-0.817,12.977-0.373,18.612-3.671c15.299-8.302,30.828-16.174,46.171-24.404
		c3.111-1.563,6.065-3.585,9.492-4.431c3.312,1.649,6.323,3.872,9.636,5.592c0.014-3.972,0.043-7.929,0.143-11.873
		c3.37-0.014,6.753,0.014,10.137,0.1c2.624-25.265,4.388-50.602,7.112-75.852
		C1104.799,1297.415,1108.384,1283.735,1111.682,1270.013z"/>
	<path fill="#D8612F" stroke="#D8612F" stroke-width="0.5" d="M1193.399,1297.701c2.093-8.833,2.767-18.01,5.879-26.584
		c5.664,31.344,11.786,62.617,17.35,93.991c0.789,5.148,3.083,9.894,5.965,14.195c1.95,3.513,5.205,7.241,3.757,11.557
		c-2.208,8.632-4.775,17.178-7.327,25.724c-2.868,8.101-4.072,16.705-7.571,24.591c-0.401-0.688-1.176-2.079-1.563-2.782
		c2.093-6.338,4.459-12.575,6.754-18.841c1.979-6.381,0.717-13.106-0.057-19.544c-5.119,4.574-7.413,11.213-10.711,17.063
		c-4.158,7.872-8.446,15.701-12.661,23.559c-1.62,3.054-3.456,6.008-5.563,8.761c-1.032-24.448-3.112-48.881-2.251-73.357
		c0.502-14.869,0.903-29.739,1.749-44.579C1188.251,1320.041,1191.219,1308.929,1193.399,1297.701z"/>
	<path fill="#918F6F" stroke="#918F6F" stroke-width="0.5" d="M1205.873,1417.072c3.298-5.85,5.592-12.489,10.711-17.063
		c0.774,6.438,2.036,13.163,0.057,19.544C1213.043,1418.663,1209.472,1417.817,1205.873,1417.072z"/>
	<path fill="#191919" stroke="#191919" stroke-width="0.5" d="M1080.036,1420.814c6.151-4.058,12.374-9.306,20.017-9.793
		c-3.9,7.327-3.814,16.045-8.044,23.229c-1.893,3.929-4.818,7.571-5.42,12.002c0.258,15.3,3.628,30.499,3.312,45.798
		c-5.305,16.404-11.815,32.434-17.479,48.738c-1.42,4.316,0.746,8.732,1.42,13.02c1.29,4.215,1.061,9.464,4.717,12.532
		c10.984,9.578,22.125,18.984,32.979,28.721c7.27-4.933,14.41-10.037,21.566-15.113l1.276-0.875
		c-1.577,8.317-6.453,15.529-8.474,23.702c-2.18,10.109,8.704,17.88,6.252,27.889c-1.448,7.714-2.581,15.472-4.015,23.2
		c-8.46-3.671-16.676-7.843-25.078-11.615c-4.502-2.093-9.177-3.943-13.106-7.026c-13.536-10.812-26.971-21.738-40.593-32.42
		c-1.247-1.147-2.782-2.065-3.527-3.585c0.287-5.349,0.789-10.74,2.237-15.887c17.407,12.174,33.166,26.412,49.125,40.392
		c2.366,2.065,4.775,4.474,8.073,4.904c7.385,1.52,14.769,3.169,22.254,4.144c-6.065-7.499-13.435-13.794-20.074-20.734
		c-12.676-12.647-25.294-25.351-38.041-37.926c-3.556-2.811-3.069-7.7-3.8-11.701c-0.789-9.048-3.026-17.966-3.112-27.057
		c2.395-23.544,6.08-46.945,8.747-70.461c-0.272-9.062-2.638-17.967-4.502-26.813c-6.395,9.492-11.586,19.744-17.422,29.595
		c-2.337,3.413,0.072,7.442,0.617,11.07c3.857,17.379,8.489,34.642,11.729,52.15c-2.997,15.859-8.403,31.273-12.131,47.017
		l-1.348,0.803c2.237-20.261,4.56-40.521,6.811-60.782c-8.876,6.467-14.453,16.088-20.849,24.763
		c-7.929,11.012-15.672,22.139-23.702,33.079c-2.696-2.222-8.517-5.262-5.649-9.349c11.758-19.73,23.63-39.417,35.474-59.105
		c2.165-3.871,5.506-7.557,5.349-12.245c0.1-9.664,0.072-19.329-0.129-28.979c-0.143-6.51-0.029-13.02,0.043-19.515
		C1056.836,1437.734,1068.608,1429.503,1080.036,1420.814z"/>
	<path fill="#2B2A28" stroke="#2B2A28" stroke-width="0.5" d="M1205.873,1417.072c3.599,0.746,7.169,1.592,10.768,2.481
		c-2.294,6.266-4.66,12.503-6.754,18.841c-1.233,2.524-2.524,5.019-3.757,7.557c-4.001-2.481-8.503-3.886-12.919-5.32
		C1197.428,1432.773,1201.715,1424.944,1205.873,1417.072z"/>
	<path fill="#010101" stroke="#010101" stroke-width="0.5" d="M947.675,1447.484c20.605-2.538,41.167-5.463,61.786-7.901
		c-1.835,3.04-3.441,6.209-5.133,9.335c-7.098,2.81-14.984,2.567-22.411,4.029c-29.036,4-57.986,8.56-87.051,12.231
		c-0.832-0.115-2.481-0.33-3.298-0.444c13.665-4.244,27-9.435,40.536-14.066C937.122,1448.904,942.398,1448.043,947.675,1447.484z"
		/>
	<path fill="#FEFEFE" stroke="#FEFEFE" stroke-width="0.5" d="M1049.323,1467.673c5.836-9.851,11.026-20.103,17.422-29.595
		c1.864,8.847,4.23,17.751,4.502,26.813c-2.667,23.516-6.352,46.916-8.747,70.461c0.086,9.091,2.323,18.01,3.112,27.057
		c0.731,4.001,0.244,8.89,3.8,11.701c12.747,12.575,25.365,25.279,38.041,37.926c6.639,6.94,14.009,13.235,20.074,20.734
		c-7.485-0.975-14.869-2.624-22.254-4.144c-3.298-0.43-5.707-2.839-8.073-4.904c-15.959-13.98-31.717-28.219-49.125-40.392
		c0.531-1.807,0.989-3.642,1.463-5.42c3.728-15.744,9.134-31.158,12.131-47.017c-3.241-17.508-7.872-34.772-11.729-52.15
		C1049.394,1475.115,1046.985,1471.086,1049.323,1467.673z"/>
	<path fill="#191919" stroke="#191919" stroke-width="0.5" d="M1206.131,1445.95c1.233-2.538,2.524-5.033,3.757-7.557
		c0.387,0.703,1.161,2.093,1.563,2.782c1.133,11.098,4.517,21.752,6.883,32.621c4.803,19.314,8.89,38.83,13.923,58.101
		c4.431,12.532,8.747,25.136,13.851,37.439c2.007,6.481,3.814,13.091,6.696,19.286c1.233,2.825,4.818,3.025,7.27,4.388
		c11.586,5.205,23.386,9.922,35.073,14.941c3.226,1.735,6.754,0.072,9.98-0.817c15.586-5.105,31.445-9.363,47.003-14.583
		c-3.398-8.331-7.643-16.274-10.797-24.677c0.817,0.115,2.466,0.359,3.284,0.488c2.839,1.291,6.366,2.022,8.374,4.588
		c4.803,9.249,8.46,19.085,13.192,28.391c4.832,5.664,11.07,9.98,16.49,15.099c8.23,5.492,6.582,16.561,10.482,24.634
		c-7.399,1.548-14.683,4.058-22.326,3.886c-25.838,0.014-51.663,1.878-77.501,1.749c-13.292-3.011-26.398-6.954-39.647-10.195
		c-2.423-0.688-5.606-1.061-6.166-4.029c-6.18-16.246-12.36-32.52-18.526-48.781c-1.706-4.459-3.04-9.076-5.549-13.149
		c-1.921,25.193-4.66,50.344-5.879,75.594c-4.13-1.678-7.929-3.972-11.557-6.51c0.459-14.726,1.348-29.438,2.122-44.135
		c0.832-13.507-1.807-26.871-2.71-40.306c-0.588-3.728-0.129-8.087-2.896-10.998c-4.961-5.592-9.879-11.199-14.97-16.647
		c-1.362-1.534-2.939-3.126-2.925-5.291c-0.774-7.671-1.491-15.357-1.893-23.042c-0.531-4.832,2.294-9.005,4.029-13.263
		c4.316-9.478,7.485-19.572,13.321-28.29C1202.418,1453.937,1204.181,1449.879,1206.131,1445.95 M1247.585,1590.944
		c4.474,5.965,10.768,10.224,15.959,15.543c7.083,6.309,13.45,13.507,21.021,19.2c13.751,4.531,27.746,8.359,41.597,12.647
		c-2.782-3.312-4.789-7.771-9.048-9.377c-13.909-5.764-27.918-11.27-41.769-17.135
		C1265.58,1605.583,1257.134,1597.468,1247.585,1590.944 M1356.617,1622.575c-0.043,2.538-0.115,5.09-0.172,7.671
		c7.757-0.186,15.529-0.616,23.257-1.477c1.391-3.284,0.287-7.213,0.703-10.711
		C1372.375,1618.962,1364.517,1620.983,1356.617,1622.575z"/>
	<path fill="#2A2A2A" stroke="#2A2A2A" stroke-width="0.5" d="M1304.911,1446.108c39.389,20.634,79.652,39.661,119.155,60.094
		c2.007,8.345,1.348,17.178,3.37,25.566c3.326,7.298,8.56,13.593,11.973,20.877c1.305,5.506,0.344,11.285,0.602,16.92
		c-0.244,5.09,0.703,10.381-0.631,15.371c-2.323,1.247-4.803,2.179-7.227,3.183c-0.43-6.481-1.004-12.933-1.706-19.371
		c-9.492-2.739-18.769-6.137-28.161-9.162c-3.126,2.093-6.539,3.828-9.234,6.481c-2.337,9.22-3.341,18.726-5.191,28.061
		c-2.481-0.057-4.947-0.086-7.384-0.086c-0.803-13.034,1.505-25.968,1.993-38.958c0.531-5.047-0.1-10.768,3.456-14.869
		c3.886-5.162,7.528-10.496,11.285-15.758c1.205-2.495,4.23-2.251,6.524-2.997c-8.546-5.191-17.436-9.779-26.097-14.755
		c-9.191-5.578-19.816-7.901-29.71-11.829c-12.632-3.986-24.82-9.306-37.611-12.719c-1.262-7.299-2.165-14.668-3.785-21.895
		C1305.915,1455.543,1305.47,1450.825,1304.911,1446.108z"/>
	<path fill="#C26436" stroke="#C26436" stroke-width="0.5" d="M1306.531,1460.26c1.62,7.227,2.524,14.597,3.785,21.895
		c0.875,4.187,1.391,8.46,1.348,12.776c-1.391,0.301-2.767,0.631-4.115,1.004C1306.316,1484.077,1306.402,1472.161,1306.531,1460.26
		z"/>
	<path fill="#F1F1F1" stroke="#F1F1F1" stroke-width="0.5" d="M732.464,1549.82c10.525-2.667,20.763-6.309,31.273-9.048
		c4.846,5.334,10.539,9.922,15.099,15.543c1.835,7.485,1.262,15.472,2.309,23.143c-6.51,1.075-13.134,2.982-19.759,1.549
		c-9.105-1.835-18.182-3.8-27.229-5.879c-0.33-1.964-0.674-3.871-0.875-5.793C732.808,1562.825,732.35,1556.316,732.464,1549.82z"/>
	<path fill="#F1F1F1" stroke="#F1F1F1" stroke-width="0.5" d="M1393.052,1566.066c2.696-2.653,6.108-4.388,9.234-6.481
		c9.392,3.025,18.669,6.424,28.161,9.162c0.703,6.438,1.276,12.891,1.706,19.371c-6.08,2.094-11.7,6.194-18.354,6.051
		c-8.661,0-17.307,0-25.939-0.043C1389.711,1584.792,1390.714,1575.286,1393.052,1566.066z"/>
	<path fill="#938D71" stroke="#938D71" stroke-width="0.5" d="M1246.108,1569.335c6.037,6.94,10.697,15.084,13.966,23.673
		c-2.452-1.362-6.037-1.563-7.27-4.388C1249.922,1582.426,1248.115,1575.816,1246.108,1569.335z"/>
	<path fill="#FDFDFD" stroke="#FDFDFD" stroke-width="0.5" d="M1247.585,1590.944c9.55,6.524,17.995,14.64,27.76,20.877
		c13.851,5.865,27.86,11.371,41.769,17.135c4.259,1.606,6.266,6.065,9.048,9.377c-13.851-4.287-27.846-8.116-41.597-12.647
		c-7.571-5.693-13.937-12.891-21.021-19.2C1258.353,1601.167,1252.058,1596.908,1247.585,1590.944z"/>
	<path fill="#F1F1F1" stroke="#F1F1F1" stroke-width="0.5" d="M892.442,1610.158c6.495-5.148,12.331-11.471,19.458-15.615
		c8.001,3.026,15.644,7.012,23.587,10.238c1.649,0.932,4.502,1.333,4.345,3.843c0.731,7.428,0.574,14.912,1.104,22.369
		c0.229,4.373,0.172,8.761-0.115,13.149c-16.375-3.04-32.936-5.09-49.239-8.546c-0.014-0.789-0.029-2.38-0.029-3.169
		C891.768,1624.984,892.17,1617.571,892.442,1610.158z"/>
	<path fill="#F2F2F2" stroke="#F2F2F2" stroke-width="0.5" d="M1356.617,1622.575c7.901-1.592,15.758-3.613,23.788-4.517
		c-0.416,3.499,0.688,7.427-0.703,10.711c-7.729,0.86-15.5,1.29-23.257,1.477
		C1356.502,1627.665,1356.574,1625.113,1356.617,1622.575z"/>
</g>
</svg>
